<svg id="Layer_1" enable-background="new 0 0 174.856 294.948" height="512" viewBox="0 0 174.856 294.948" width="512" xmlns="http://www.w3.org/2000/svg"><g><path d="m42.965 138.149v13.694l5.38-1.202.683-.51v-68.772z"/><path d="m49.028 40.124v-20.977h9.032v17.166 3.175l-4.135 1.432c-6.71 2.324-11.789 10.791-12.94 21.571l-8.958 90.266 2.031.079c1.758.041 3.408.51 4.868 1.292l9.021-90.894c.838-7.848 4.239-14.304 8.271-15.7l5.951-2.061h9.167 8.042 3v43.753c1.634-.33 3.323-.505 5.052-.505 1.73 0 3.419.175 5.053.505v-43.752h3 8.042 9.167l5.951 2.061c4.031 1.396 7.433 7.853 8.271 15.7l9.021 90.894c1.46-.782 3.11-1.252 4.868-1.292l2.031-.079-8.959-90.266c-1.151-10.78-6.23-19.247-12.94-21.571l-4.134-1.432v-3.175-17.167h9.031v20.977c2.311 1.623 4.364 3.884 6.063 6.649v-27.626h10.189v-6.063h-25.284v-7.4h-11.274v-5.684h-36.193v5.684h-11.273v7.4h-25.284v6.063h10.189v27.625c1.699-2.764 3.753-5.026 6.063-6.648z"/><path d="m49.028 210.534v-37.504l-6.063 1.355v37.654c.946-.396 1.938-.705 2.97-.905z"/><path d="m126.511 150.641 5.38 1.202v-13.692l-6.063-56.79v68.77z"/><path d="m125.828 210.534 3.094.6c1.031.2 2.023.509 2.969.905v-37.653l-6.063-1.355z"/><path d="m68.718 276.643v-31.495h-3v31.667z"/><path d="m65.718 49.642v51.223c.872-1.412 1.878-2.732 3-3.945v-47.278z"/><path d="m65.718 139.299c.771-.177 1.569-.279 2.393-.279h.607v-7.497c-1.122-1.212-2.128-2.532-3-3.945v11.623z"/><path d="m106.138 245.148v31.495l3 .172v-31.667z"/><path d="m106.138 49.642v47.279c1.122 1.212 2.128 2.532 3 3.945v-51.224z"/><path d="m106.138 131.524v7.497h.607c.823 0 1.622.102 2.393.279v-.097-11.624c-.872 1.412-1.878 2.732-3 3.945z"/><path d="m20.457 282.416-20.457 1.118v5.364h21.786c-.918-2.049-1.375-4.251-1.329-6.482z"/><path d="m153.07 288.898h21.786v-5.364l-20.457-1.118c.046 2.231-.411 4.433-1.329 6.482z"/><path d="m123.037 280.701-30.556-1.67v-36.884h16.737c1.75 0 3.324-.78 4.402-2.005l-.221-.951-24.139-4.683c-.619-.12-1.231-.279-1.832-.475-.602.196-1.215.355-1.833.475l-24.139 4.683-.221.951c1.079 1.225 2.652 2.005 4.403 2.005h16.736v36.884l-30.556 1.67-1.263 5.442c-.223.962-.541 1.88-.927 2.755h75.598c-.386-.875-.704-1.792-.927-2.755z"/><circle cx="87.428" cy="114.223" r="22.5"/><path d="m151.087 279.925-13.137-56.59c-1.093-4.709-4.854-8.335-9.6-9.256l-13.877-2.692v-46.021l2.561 1.91c.903.673 1.939 1.149 3.039 1.395l13.327 2.978c-1.972-1.943-3.228-4.615-3.297-7.561-.081-3.476 1.473-6.613 3.944-8.689l-8.818-1.97-13.124-9.789c-1.374-1.024-2.969-1.535-4.562-1.578-.263-.027-.53-.041-.8-.041h-38.632c-.27 0-.537.014-.8.041-1.592.043-3.187.554-4.561 1.578l-13.124 9.789-8.818 1.97c2.471 2.075 4.025 5.212 3.944 8.689-.068 2.946-1.324 5.618-3.296 7.561l13.327-2.978c1.1-.246 2.136-.721 3.039-1.395l2.561-1.91v46.021l-13.876 2.692c-4.746.921-8.507 4.547-9.6 9.256l-13.138 56.59c-1.53 6.59 2.572 13.173 9.162 14.703.933.216 1.864.32 2.781.32 5.569 0 10.608-3.824 11.922-9.483l11.341-48.848 26.05-5.054c.841-.163 1.644-.41 2.404-.728.76.318 1.563.564 2.403.728l26.05 5.054 11.34 48.848c1.313 5.659 6.352 9.483 11.922 9.483.917 0 1.85-.104 2.781-.32 6.59-1.53 10.692-8.113 9.162-14.703z"/><path d="m36.917 174.359c-1.003.306-2.064.473-3.159.473l-.259-.003-3.65-.143-.53 5.344-.243 2.448c-.205 1.922 1.187 3.646 3.109 3.852.126.013.251.02.375.02 1.767 0 3.284-1.333 3.477-3.129l.354-3.57z"/><path d="m27.126 171.577 6.442.252c.063.001.126.002.189.002 4.331 0 7.893-3.46 7.994-7.814.103-4.417-3.396-8.081-7.813-8.184l-6.442-.252c-4.426-.102-4.787 15.893-.37 15.996z"/><path d="m141.357 174.829-.259.003c-1.095 0-2.156-.167-3.159-.473l.525 5.292.354 3.57c.192 1.796 1.71 3.129 3.477 3.129.124 0 .249-.007.375-.02 1.923-.206 3.314-1.93 3.109-3.852l-.243-2.448-.53-5.344z"/><path d="m140.917 155.834c-4.417.103-7.915 3.767-7.813 8.184.102 4.354 3.663 7.814 7.994 7.814.063 0 .126 0 .189-.002l6.442-.252c4.417-.103 4.057-16.099-.371-15.996z"/></g></svg>