<svg clip-rule="evenodd" fill-rule="evenodd" stroke-linejoin="round" stroke-miterlimit="2" viewBox="0 0 32 32" currentColor="currentColor" xmlns="http://www.w3.org/2000/svg"><g transform="translate(-96 -240)"><path d="m101 247h-1c-.552 0-1 .448-1 1s.448 1 1 1h1v6h-1c-.552 0-1 .448-1 1s.448 1 1 1h1v6h-1c-.552 0-1 .448-1 1s.448 1 1 1h1v3c0 .796.316 1.559.878 2.121.563.563 1.326.879 2.121.879h18.002c.795 0 1.558-.316 2.121-.879.562-.562.878-1.325.878-2.121v-24c0-.796-.316-1.559-.878-2.121-.563-.563-1.326-.879-2.121-.879-4.184 0-13.818 0-18.002 0-.795 0-1.558.316-2.121.879-.562.562-.878 1.325-.878 2.121zm1.268 16h.732c.552 0 1 .448 1 1s-.448 1-1 1h-.732c.346.598.992 1 1.732 1 1.104 0 2-.896 2-2s-.896-2-2-2c-.74 0-1.386.402-1.732 1zm0-8h.732c.552 0 1 .448 1 1s-.448 1-1 1h-.732c.346.598.992 1 1.732 1 1.104 0 2-.896 2-2s-.896-2-2-2c-.74 0-1.386.402-1.732 1zm0-8h.732c.552 0 1 .448 1 1s-.448 1-1 1h-.732c.346.598.992 1 1.732 1 1.104 0 2-.896 2-2s-.896-2-2-2c-.74 0-1.386.402-1.732 1z"/></g></svg>