<svg id="Layer_1" enable-background="new 0 0 201.299 142.333" height="512" viewBox="0 0 201.299 142.333" width="512" xmlns="http://www.w3.org/2000/svg"><g><path d="m95.368 73.786c2.345-3.3 2.946-7.53 1.614-11.353l-5.333-15.305c-1.033-.009-2.085-.025-3.169-.058l3.722 24.588c.232 1.538.212 3.089-.036 4.604h.849c.881-.711 1.682-1.531 2.353-2.476z"/><path d="m62.292 71.84-2.693-17.794h-35.053c-6.903 0-12.5 5.597-12.5 12.5 0 3.926 1.813 7.424 4.643 9.716h43.656z"/><path d="m182.276 139.535h19.022v-10h-4.032l-6.561-33.126-.594-3h3.509c3.89 0 7.073-3.183 7.073-7.073s-3.183-7.073-7.073-7.073h-62.885l1.308 19.842h2.004v-4.992c0-2.884 2.347-5.231 5.231-5.231h6.356c2.885 0 5.231 2.347 5.231 5.231v4.992h30.18l6.027 30.432h-4.797v9.998z"/><path d="m92.081 94.111c0-2.884 2.347-5.231 5.23-5.231h6.357c2.884 0 5.23 2.347 5.23 5.231v4.992h2.499l-1.308-19.842h-18.747c-.075.192-.146.385-.229.574l-8.481 19.268h9.449z"/><path d="m59.025 79.262h-51.347c-3.89 0-7.073 3.183-7.073 7.073s3.183 7.073 7.073 7.073h3.509l-.594 3-6.561 33.126h-4.032v10h19.022v-10h-4.797l6.027-30.432h30.038z"/><path d="m74.458 8.493c-7.257-.203-10.97.813-12.845 3.116-3.248 2.707-5.053 6.985-4.374 11.471l7.427 49.077-23.17 52.638c-2.781 6.318.086 13.695 6.404 16.477 1.639.721 3.348 1.063 5.029 1.063 4.806 0 9.388-2.787 11.447-7.467l24.632-55.958c.955-2.168 1.273-4.564.919-6.907l-4.137-27.34c6.584.313 12.402.205 18.006-.378 2.353-.245 4.671-.581 6.988-1l3.843-25.395c.756-4.994 5.132-8.76 10.178-8.76.515 0 1.035.039 1.547.116 5.617.85 9.494 6.11 8.645 11.726l-2.438 16.108c.305-.112.601-.216.909-.331 3.618-1.371 6.598-3.181 8.995-5.257l22.407 44.77h17.557c-.136-.697-.359-1.388-.693-2.054l-13.63-27.232c-12.111-1.954-21.214-12.661-20.824-25.244.121-3.895 1.121-7.544 2.8-10.767l-.179-.357c-.008-.017-.019-.032-.027-.048-.024-.092-.045-.186-.07-.277-2.393-8.465-14.415-11.848-24.271-8.671-9.306 2.123-21.303 5.27-33.393 6.595-5.977.654-11.975.872-17.682.286z"/><path d="m149.579 21.802c-.385 12.422 9.371 22.802 21.791 23.187s22.802-9.37 23.187-21.791c.385-12.42-9.37-22.802-21.791-23.187s-22.802 9.371-23.187 21.791z"/><path d="m111.595 102.08h-4.995v-7.969c0-1.612-1.319-2.931-2.931-2.931h-6.357c-1.612 0-2.931 1.319-2.931 2.931v21.909c0 1.612 1.318 2.931 2.931 2.931h6.357c1.611 0 2.931-1.319 2.931-2.931v-7.969h6.057c-.5-1.099-.82-2.298-.903-3.565z"/><path d="m148.566 94.111c0-1.612-1.319-2.931-2.932-2.931h-6.356c-1.612 0-2.932 1.319-2.932 2.931v7.969h-4.108l.069 1.051c.115 1.749-.218 3.425-.896 4.92h4.935v7.969c0 1.612 1.319 2.931 2.932 2.931h6.356c1.612 0 2.932-1.319 2.932-2.931z"/><path d="m130.013 103.283-2.974-45.113 5.681-37.542c.661-4.369-2.345-8.446-6.713-9.107-4.37-.658-8.446 2.345-9.107 6.713l-5.811 38.4c-.086.57-.11 1.148-.072 1.723l3.031 45.979c.278 4.229 3.796 7.474 7.975 7.474.177 0 .355-.006.534-.018 4.408-.291 7.747-4.101 7.456-8.509z"/></g></svg>