<svg viewBox="0 0 60 60" fill="currentColor" xmlns="http://www.w3.org/2000/svg"><circle cx="30" cy="18" r="5"/><path d="m7 16h4c.55 0 1-.45 1-1v-2.92c.05.17.12.32.21.43l10.06 16.62c.54.74.89 1.53 1.03 2.41l.57 2.5c.09.51-.13 1.04-.6 1.48l-5.42 4.98c-.82.74-1.34 1.7-1.45 2.69l-1.05 7.95c-.14 1.39 1.02 2.63 2.69 2.83.14.02.27.03.42.03 1.5 0 2.78-.9 3.04-2.09l1.67-6.43c.15-.64.61-1.23 1.31-1.66l3.91-2.42c.98-.61 2.28-.6 3.25 0l3.85 2.38c.74.46 1.24 1.08 1.4 1.8l1.64 6.29c.27 1.25 1.57 2.13 3.05 2.13.15 0 .3-.01.45-.03 1.54-.18 2.66-1.26 2.66-2.57 0-.12-.01-.23-.02-.28l-1.03-7.85c-.12-1.05-.63-2.02-1.49-2.81l-5.79-5.31c-.12-.12-.32-.35-.28-.59l.62-2.79c.16-1.02.59-1.99 1.26-2.88.02-.03.04-.06.05-.09l9.79-16.17c.08-.11.15-.23.2-.36v2.73c0 .55.45 1 1 1h4c.55 0 1-.45 1-1v-8c0-.56-.45-1-1-1h-4c-.55 0-1 .44-1 1v3h-3.95-.23-27.6-.24-3.98v-3c0-.56-.45-1-1-1h-4c-.55 0-1 .44-1 1v8c0 .55.45 1 1 1zm34.9-4-9.28 12.44c-1.67-.47-3.41-.47-5.2.01l-9.28-12.45z"/></svg>