<svg id="Layer_1" enable-background="new 0 0 342.792 318.854" height="512" viewBox="0 0 342.792 318.854" width="512" xmlns="http://www.w3.org/2000/svg"><g><path d="m206.848 302.127h-30.452v-33.6h22.651l-1.68-7.236-24.139-4.683c-.619-.12-1.231-.279-1.832-.475-.602.196-1.215.355-1.833.475l-24.139 4.683-1.68 7.236h22.651v33.6h-30.452l-1.42 6.117c-.322 1.387-.829 2.685-1.481 3.883h76.706c-.652-1.198-1.159-2.496-1.481-3.883z"/><path d="m134.07 313.674h5.684v2.905h-5.684z"/><path d="m203.038 313.674h5.684v2.905h-5.684z"/><path d="m222.329 173.952-23.865-8.187h-54.138l-23.865 8.187-4.635-8.187h-18.113c.171.603.407 1.197.729 1.766l11.368 20.085c1.452 2.565 4.146 4.061 6.963 4.061.864 0 1.74-.141 2.595-.434l24.981-8.57v39.87 10.946l-13.876 2.692c-4.746.921-8.507 4.547-9.6 9.256l-13.138 56.59c-1.53 6.59 2.572 13.173 9.162 14.703.933.216 1.864.32 2.781.32 5.569 0 10.608-3.824 11.922-9.483l11.341-48.848 26.05-5.054c.841-.163 1.644-.41 2.404-.728.76.318 1.563.564 2.403.728l26.05 5.054 11.34 48.848c1.313 5.659 6.352 9.483 11.922 9.483.917 0 1.85-.104 2.781-.32 6.59-1.53 10.693-8.112 9.162-14.703l-13.137-56.59c-1.093-4.709-4.854-8.335-9.6-9.256l-13.877-2.692v-10.491-40.325l24.982 8.57c.854.293 1.73.434 2.595.434 2.817 0 5.511-1.495 6.963-4.061l11.368-20.085c.323-.57.558-1.163.729-1.766h-18.114z"/><path d="m257.678 157.906h-14.671c-.492-.486-1.048-.921-1.679-1.278-3.188-1.804-7.082-1.178-9.562 1.278h-42.691-4.667c5.74-4.077 9.489-10.774 9.489-18.352 0-12.427-10.072-22.5-22.5-22.5-12.426 0-22.5 10.073-22.5 22.5 0 7.577 3.75 14.274 9.49 18.352h-4.667-42.692c-2.48-2.456-6.377-3.083-9.562-1.278-.631.357-1.187.792-1.679 1.278h-14.351v5.558h172.242z"/><path d="m62.899 181.373v-40.758c0-.755.141-1.477.385-2.149v-12.918c0-2.2-1.8-4-4-4h-.716c-1.859 0-3.421 1.292-3.863 3.02-.442-1.727-2.003-3.02-3.863-3.02h-.716c-1.921 0-3.538 1.374-3.916 3.188-.378-1.814-1.993-3.188-3.915-3.188h-.717c-2.199 0-4 1.8-4 4v21.558h-6.82v10.8h-30.758v5.558h30.758v10.8h6.82v21.558c0 2.2 1.801 4 4 4h.717c1.922 0 3.537-1.374 3.915-3.188.378 1.814 1.995 3.188 3.916 3.188h.716c1.86 0 3.421-1.292 3.863-3.02.442 1.727 2.004 3.02 3.863 3.02h.716c2.2 0 4-1.8 4-4v-12.301c-.245-.671-.385-1.393-.385-2.148z"/><path d="m300.497 199.823h.715c2.201 0 4-1.8 4-4v-21.558h6.822v-10.8h30.758v-5.558h-30.758v-10.8h-6.822v-21.558c0-2.2-1.799-4-4-4h-.715c-1.916 0-3.526 1.366-3.911 3.171-.385-1.806-1.995-3.171-3.91-3.171h-.716c-1.86 0-3.422 1.292-3.863 3.019-.442-1.727-2.004-3.019-3.863-3.019h-.716c-2.2 0-4 1.8-4 4v12.198c.443.861.698 1.835.698 2.868v40.758c0 1.033-.255 2.007-.698 2.868v11.581c0 2.2 1.8 4 4 4h.716c1.859 0 3.421-1.292 3.863-3.02.441 1.728 2.003 3.02 3.863 3.02h.716c1.915 0 3.525-1.367 3.91-3.172.384 1.806 1.994 3.173 3.911 3.173z"/><path d="m78.91 134.315v-113.209c0-6.124 4.983-11.106 11.108-11.106h162.756c6.124 0 11.106 4.982 11.106 11.106v113.214c.033 0 .064-.005.097-.005h9.903v-113.209c0-11.638-9.469-21.106-21.106-21.106h-162.756c-11.639 0-21.108 9.468-21.108 21.106v113.224c.096-.004.191-.015.288-.015z"/><path d="m78.91 187.673h-9.712c-.097 0-.192-.01-.288-.015v121.196h-10.531v10h31.063v-10h-10.532z"/><path d="m273.88 187.673h-9.903c-.033 0-.065-.004-.097-.005v121.186h-10.531v10h31.063v-10h-10.532z"/><path d="m83.136 140.615c0-2.2-1.8-4-4-4h-9.937c-2.2 0-4 1.8-4 4v40.758c0 2.2 1.8 4 4 4h9.937c2.2 0 4-1.8 4-4zm-6.821 20.379c0 1.186-.961 2.147-2.147 2.147s-2.147-.961-2.147-2.147.961-2.147 2.147-2.147 2.147.961 2.147 2.147zm-2.148-21.158c1.186 0 2.147.961 2.147 2.147s-.961 2.147-2.147 2.147-2.147-.961-2.147-2.147.961-2.147 2.147-2.147zm0 42.316c-1.186 0-2.147-.961-2.147-2.147s.961-2.147 2.147-2.147 2.147.961 2.147 2.147c.001 1.186-.961 2.147-2.147 2.147z"/><path d="m277.915 140.615c0-2.2-1.8-4-4-4h-9.937c-2.2 0-4 1.8-4 4v40.758c0 2.2 1.8 4 4 4h9.937c2.2 0 4-1.8 4-4zm-6.821 20.379c0 1.186-.961 2.147-2.147 2.147s-2.147-.961-2.147-2.147.961-2.147 2.147-2.147c1.185 0 2.147.961 2.147 2.147zm-2.148-21.158c1.186 0 2.147.961 2.147 2.147s-.961 2.147-2.147 2.147-2.147-.961-2.147-2.147.961-2.147 2.147-2.147zm0 42.316c-1.186 0-2.147-.961-2.147-2.147s.961-2.147 2.147-2.147 2.147.961 2.147 2.147c.001 1.186-.961 2.147-2.147 2.147z"/></g></svg>