<svg id="Layer_1" enable-background="new 0 0 256.527 331.267" height="512" viewBox="0 0 256.527 331.267" width="512" xmlns="http://www.w3.org/2000/svg"><g><path d="m132.933.591c-12.1-2.816-24.193 4.709-27.012 16.809-.54 2.321-.697 4.643-.517 6.898h44.851c.89-10.925-6.325-21.146-17.322-23.707z"/><path d="m145.598 36.298h-35.529c2.605 3.359 6.171 6.003 10.411 7.463h14.694c4.102-1.421 7.739-4.01 10.424-7.463z"/><path d="m251.264 18.017c0-2.761-2.238-5-5-5h-8.914c-2.762 0-5 2.239-5 5v8.281h-10.258c.134 1.266.059 2.556-.26 3.827-.357 1.428-.725 2.816-1.103 4.173h11.62v296.97h18.914v-296.97h5.264v-8h-5.264v-8.281z"/><path d="m24.176 26.298v-8.281c0-2.761-2.238-5-5-5h-8.912c-2.762 0-5 2.239-5 5v8.281h-5.264v8h5.264v296.97h18.912v-296.97h11.631c-.38-1.358-.753-2.739-1.111-4.166-.324-1.29-.391-2.583-.257-3.834z"/><path d="m105.654 26.298h-49.234c.741 2.835 1.537 5.507 2.381 8h49.88 38.304 50.738c.804-2.373 1.601-5.031 2.373-8h-50.095z"/><path d="m144.299 196.171c4.572 0 9.031-2.321 11.568-6.519 3.229-5.345 2.305-12.023-1.822-16.321l-12.327 22.588c.856.166 1.72.252 2.581.252z"/><path d="m121.814 153.304 2.89-16.911.636-3.724h4.98l3.07 17.966-3.966 7.267-12.946 23.724-8.682 15.908c-3.572 6.546-1.166 14.745 5.381 18.317 2.055 1.121 4.271 1.653 6.457 1.653 4.779 0 9.41-2.543 11.861-7.035l8.241-15.1 12.78-23.417 6.822-12.499c1.469-2.689 1.973-5.724 1.457-8.744l-7.465-43.683 8.678-36.979c4.879 2.976 11.225 5.773 18.928 5.838h.07c3.82 0 7.922-.801 11.854-2.65 5.967-2.784 11.309-7.795 15.754-14.897 3.619-5.78 6.762-12.987 9.458-22.041.196-.656.389-1.324.579-2 .425-1.504.839-3.054 1.24-4.657.282-1.127.329-2.256.188-3.343-.09-.688-.255-1.359-.496-2-1.006-2.673-3.26-4.826-6.24-5.571-4.482-1.12-9.02 1.341-10.604 5.571-.119.317-.226.642-.31.979-.087.35-.177.679-.264 1.021-.745 2.909-1.525 5.571-2.33 8-.227.686-.455 1.352-.686 2-2.888 8.139-6.013 13.44-8.785 16.556-1.936 2.192-3.641 3.377-5.131 4.08-1.496.689-2.832.943-4.297.953-3.432.077-7.918-1.914-11.393-4.391-1.73-1.208-3.189-2.453-4.174-3.363-.488-.452-.859-.82-1.09-1.055-.117-.117-.199-.2-.238-.247l-.01-.01c-2.084-2.297-5.084-3.269-7.939-2.865-.596-.121-1.207-.196-1.834-.196h-52.855c-.523 0-1.033.059-1.535.144-2.682-.209-5.428.772-7.373 2.921v-.003l-.01.01c-.309.338-2.795 2.885-6.166 5.113-3.377 2.286-7.512 4.003-10.73 3.942-1.465-.01-2.799-.264-4.299-.953-2.205-1.041-5.018-3.224-8.133-8.163-1.928-3.06-3.907-7.162-5.788-12.473-.229-.647-.456-1.316-.682-2-.804-2.43-1.584-5.095-2.33-8-.088-.341-.176-.675-.263-1.021-.084-.337-.19-.661-.309-.979-1.582-4.23-6.12-6.691-10.605-5.571-2.979.746-5.234 2.899-6.24 5.571-.241.641-.406 1.312-.496 2-.142 1.087-.094 2.218.189 3.346.404 1.606.822 3.147 1.248 4.654.191.676.384 1.344.579 2 3.806 12.771 8.476 21.904 14.181 28.44 3.326 3.788 7.063 6.649 11.024 8.497 3.932 1.85 8.033 2.65 11.853 2.65h.07c7.313-.061 13.396-2.585 18.17-5.385l8.57 36.518-8.602 50.347-.078.459c-.006.036-.007.072-.013.108-.052.314-.084.626-.112.938-.014.145-.032.288-.041.433-.016.267-.014.53-.015.795.001.19-.007.381.002.571.008.203.032.402.05.604.021.244.037.488.072.73.021.152.056.3.083.451.05.279.097.559.164.834.035.146.083.285.123.429.075.27.148.541.24.807.067.193.149.381.226.57.081.205.157.412.248.612.123.267.263.526.402.786.062.114.116.233.181.347.172.297.361.584.555.867.048.071.091.145.141.216.191.27.399.525.61.78.068.082.13.169.201.25.181.209.377.404.57.602.12.122.234.248.359.366.153.145.318.277.479.415.186.16.369.321.565.472.124.096.255.182.383.272.247.176.495.351.758.512.032.02.061.043.093.063l14.789 8.936 12.945-23.725z"/></g></svg>