<svg viewBox="0 0 500 500" fill="currentColor" xmlns="http://www.w3.org/2000/svg"><path clip-rule="evenodd" d="m136.122 353.055c-3.817 0-6.912-3.095-6.912-6.912s3.095-6.912 6.912-6.912h21.315c.508 0 .921-.414.921-.921v-58.314c0-23.11 7.856-43.138 23.577-60.14 11.072-11.974 23.883-21.443 38.263-28.908.313-.162.497-.465.497-.817 0-.353-.184-.655-.497-.818-23.528-12.227-46.216-31.828-55.941-56.671-3.938-10.062-5.9-20.841-5.9-32.376v-58.314c0-.508-.414-.921-.921-.921h-21.315c-3.817 0-6.912-3.095-6.912-6.912s3.095-6.912 6.912-6.912h205.181c3.817 0 6.912 3.095 6.912 6.912s-3.095 6.912-6.912 6.912h-21.314c-.508 0-.921.414-.921.921v58.313c0 23.111-7.857 43.138-23.578 60.14-11.074 11.977-23.88 21.442-38.263 28.908-.313.162-.497.465-.497.817 0 .353.184.655.497.818 23.527 12.226 46.217 31.832 55.941 56.671 3.939 10.062 5.9 20.841 5.9 32.377v58.313c0 .508.414.921.921.921h21.314c3.817 0 6.912 3.095 6.912 6.912s-3.095 6.912-6.912 6.912h-205.18zm20.983-203.311c-7.32-13.042-11.342-27.197-12.329-42.111-.021-.323-.192-.591-.476-.747-.283-.156-.601-.157-.885-.002-62.01 33.789-101.697 98.883-101.697 171.149 0 107.563 87.196 194.76 194.759 194.76 66.165 0 127.179-33.283 163.185-88.407.19-.291.204-.637.039-.942-.165-.306-.463-.483-.81-.483h-54.909c-.256 0-.476.094-.655.277-58.403 59.34-153.987 59.746-212.893.841-50.068-50.068-58.414-128.567-19.572-187.992 11.859-18.144 27.552-33.563 45.93-45.111.416-.262.553-.803.313-1.232zm241.376 20.127c-16.594-24.804-38.731-45.584-64.638-60.566-.281-.162-.598-.169-.886-.02s-.464.413-.493.736c-1.32 14.908-5.705 28.932-13.35 41.81-.251.422-.126.965.283 1.237 41.465 27.557 67.051 74.034 67.051 124.965v.9c0 2.036-1.651 3.686-3.686 3.686h-22.433c-.366 0-.679.199-.834.53s-.108.7.126.981l48.514 58.239c.181.218.425.331.708.331s.527-.114.708-.331l48.514-58.239c.234-.281.282-.649.126-.981-.155-.331-.468-.53-.834-.53h-22.433c-2.036 0-3.686-1.65-3.686-3.686-.001-40.657-11.695-77.58-32.757-109.062z" fill-rule="evenodd"/></svg>