<svg id="Layer_1" enable-background="new 0 0 122.21 212.203" height="512" viewBox="0 0 122.21 212.203" width="512" xmlns="http://www.w3.org/2000/svg"><g><path d="m99.49 205.643h16.728v-10h-15.645v4.196c0 2.046-.394 3.997-1.083 5.804z"/><path d="m38.482 195.643h-15.646v10h16.728c-.689-1.807-1.083-3.758-1.083-5.804v-4.196z"/><path d="m24.513 207.191h5.684v2.905h-5.684z"/><path d="m108.857 207.191h5.684v2.905h-5.684z"/><path d="m38.481 138v-5.177h-2.126c-3.891 0-3.891 14.147 0 14.147h2.127v-8.957c0-.004-.001-.009-.001-.013z"/><circle cx="69.701" cy="22.5" r="22.5"/><path d="m34.629 64.936 7.897 1.997 1.39-5.496c.707-2.796 3.557-4.496 6.354-3.789l6.163 1.558c2.797.707 4.497 3.557 3.79 6.354l-5.37 21.24c-.707 2.796-3.557 4.496-6.354 3.789l-6.017-1.521v35.372c2.668-3.992 7.212-6.629 12.364-6.629 7.444 0 13.61 5.506 14.683 12.655 1.072-7.149 7.238-12.655 14.681-12.655 5.151 0 9.697 2.636 12.365 6.628v-36.363c-1.351-5.794-2.849-10.028-4.254-13.09l2.195-.794c3.689 8.133 7.716 23.4 8.628 51.785 1.63-.553 3.369-.866 5.182-.866 4.206 0 8.03 1.626 10.911 4.265-.576-26.719-3.795-47.058-9.598-60.651-.819-1.919-1.687-3.71-2.609-5.359-2.202-3.94-4.527-6.771-6.757-8.814-5.333-4.888-10.115-5.235-11.333-5.235-.002 0-.004 0-.006 0-.428 0-.844.044-1.254.109h-37.47c-2.037 0-3.885.794-5.265 2.082l-.491-.809c-.304.185-2.736 1.705-5.848 4.844-1.824 1.84-3.881 4.243-5.883 7.253.747.634 1.383 1.356 1.906 2.14z"/><path d="m17.306 54.708c.395-1.563-.561-3.165-2.123-3.56l-6.163-1.558c-1.563-.395-3.165.56-3.56 2.123l-5.37 21.24c-.395 1.563.56 3.165 2.123 3.56l6.163 1.558c1.562.395 3.165-.56 3.56-2.123l1.953-7.726 1.697.429c.525-1.449 1.204-2.776 2.057-3.978.352-.496.756-.942 1.183-1.362l-3.474-.878z"/><path d="m35.85 73.775 6.878 1.739-1.953 7.726c-.395 1.563.561 3.165 2.124 3.56l6.163 1.558c1.563.395 3.165-.56 3.561-2.123l5.37-21.24c.395-1.563-.561-3.165-2.124-3.56l-6.163-1.558c-1.563-.395-3.165.56-3.561 2.123l-1.953 7.726-8.281-2.094c.603 1.977.594 4.12-.061 6.143z"/><path d="m38.724 106.155c.077-.158.15-.319.217-.483.028-.069.054-.139.081-.209.064-.171.124-.344.176-.52.022-.072.041-.145.061-.218.046-.171.088-.343.122-.518.018-.089.032-.179.047-.269.026-.158.049-.317.065-.477.012-.117.018-.234.025-.352.008-.136.015-.271.016-.408.001-.145-.006-.291-.013-.436-.004-.083-.001-.165-.007-.249-.436-5.446-.188-10.19.481-14.316-1.298-1.261-1.924-3.147-1.45-5.023l1.39-5.496-5.042-1.275c-.004.006-.007.013-.01.02-.245 1.401.32 5.091 1.589 9.77l-2.144.884c-1.461-5.302-2.143-9.771-1.589-11.565 2.347-3.582 1.456-8.407-2.065-10.906-3.605-2.557-8.598-1.707-11.154 1.896-3.753 5.291-3.875 13.43-.384 25.614.105.367.213.73.321 1.091 2.098 7.027 4.637 12.884 4.749 13.142.013.03.032.056.045.085.15.333.316.656.508.962.019.031.042.059.061.089.172.266.361.519.562.761.052.063.101.126.155.187.214.243.443.472.684.687.065.058.132.111.198.166.226.188.46.366.706.528.039.026.076.055.115.08.286.183.586.343.894.488.056.026.113.052.17.077.628.279 1.295.478 1.991.587.068.011.135.02.203.029.339.044.683.075 1.033.075h.004.007c.025 0 .05-.004.075-.004.186-.002.373-.008.561-.022.025-.002.049-.007.074-.01.141-.013.283-.035.424-.056.134-.019.268-.036.399-.061.102-.02.203-.048.305-.072.172-.04.343-.082.51-.133.068-.021.136-.047.204-.07.197-.066.391-.137.58-.218.019-.008.038-.013.057-.021.045-.02.086-.044.13-.065.179-.082.356-.168.528-.262.075-.041.147-.085.22-.129.148-.088.294-.178.436-.275.089-.06.174-.124.259-.187.118-.088.235-.177.349-.272.094-.078.184-.159.274-.241.099-.091.197-.182.291-.278.088-.089.173-.18.256-.273.09-.1.178-.201.263-.306.074-.091.145-.184.215-.279.087-.117.171-.235.252-.357.056-.085.11-.172.163-.259.037-.06.078-.118.113-.179.046-.079.085-.162.128-.244.041-.072.079-.148.116-.225z"/><path d="m98.979 131.048c.059.535.094 1.076.094 1.626v18.956c2.457 2.201 5.693 3.552 9.252 3.552 7.669 0 13.885-6.217 13.885-13.885 0-7.669-6.217-13.885-13.885-13.885-3.605-.001-6.878 1.384-9.346 3.636zm15.882 10.249c0 3.61-2.927 6.537-6.537 6.537s-6.537-2.927-6.537-6.537 2.927-6.537 6.537-6.537c3.611 0 6.537 2.926 6.537 6.537z"/><circle cx="108.324" cy="141.297" r="2.747"/><path d="m42.481 132.674v67.166c0 6.83 5.537 12.363 12.363 12.363 6.828 0 12.365-5.533 12.365-12.363v-67.166c0-6.83-5.537-12.363-12.365-12.363-6.826 0-12.363 5.533-12.363 12.363z"/><path d="m71.845 199.84c0 6.83 5.537 12.363 12.363 12.363 6.828 0 12.365-5.533 12.365-12.363v-67.166c0-6.83-5.537-12.363-12.365-12.363-6.826 0-12.363 5.533-12.363 12.363z"/></g></svg>