<svg id="Layer_1" enable-background="new 0 0 233.854 195.968" height="512" viewBox="0 0 233.854 195.968" width="512" xmlns="http://www.w3.org/2000/svg"><g><ellipse cx="121.709" cy="22.506" rx="22.5" ry="22.5" transform="matrix(.707 -.707 .707 .707 19.733 92.653)"/><path d="m112.652 73.411c.01.182.023.351.033.532l17.167 55.938c.559.737 1.117 1.417 1.673 2.041 1.903 2.138 3.793 3.642 5.671 4.644l20.329-3.623 25.608-28.809-28.89 4.747c-2.765-8.246-3.663-17.398-4.386-25.925l-18.317-3.341c-2.706-.494-5.059-2.012-6.623-4.274-1.565-2.264-2.155-5-1.661-7.707.893-4.898 5.146-8.454 10.115-8.454.622 0 1.251.058 1.868.17l11.696 2.133c-2.65-8.109-9.301-14.582-16.52-13.604-8.137 1.101-17.196 8.914-17.771 22.523-.04.975-.041 1.976.008 3.009z"/><path d="m184.475 128.141c5.469-.975 10.711 2.681 11.686 8.15.475 2.663-.155 5.269-1.552 7.358l14.231 38.028c1.88 5.022 6.645 8.123 11.709 8.122 1.455 0 2.937-.256 4.379-.796 6.466-2.419 9.746-9.623 7.326-16.088l-23.494-62.779c-1.607-4.295-5.375-7.25-9.708-7.951l-24.674 27.757z"/><path d="m187.484 145.022c3.83-.683 6.405-4.375 5.723-8.205-.683-3.83-4.375-6.405-8.205-5.723l-13.842 2.467-15.179 17.076 2.11-.376.707 2.921 7.932 32.786h-28.384c-2.753 4.087-7.423 6.782-12.711 6.782s-9.957-2.694-12.71-6.782h-18.315v-98.839l-7.44-24.243c-.861-2.831-.566-5.826.828-8.44 1.396-2.615 3.718-4.528 6.54-5.387.024-.007.048-.012.072-.019v-5.24c0-12.1-9.9-22-22-22h-40.126c-12.1 0-22 9.9-22 22v142.168h-10.484v10h202.737v-10h-25.721l-8.357-34.544-.707-2.921zm-162 23.672h13.989v9.137h-13.989zm37.484-92.568v3.752h-20.842v-3.752zm-20.842-4.737v-34.59h20.842v34.59zm20.842 13.225v3.752h-20.842v-3.752zm0 8.489v3.752h-20.842v-3.752zm0 8.488v3.752h-20.842v-3.752zm0 8.489v3.752h-20.842v-3.752zm-18.273 13.099 2.191-4.61h11.323l2.191 4.61h2.568v37.516h-20.842v-37.516zm18.273 45.515v9.137h-20.842v-9.137zm2.653 0h13.989v9.137h-13.989zm13.989-124.895v116.895h-13.989v-37.516h2.569l2.191-4.61h3.577v-4.737h-8.337v-3.752h8.337v-4.737h-8.337v-3.752h8.337v-4.737h-8.337v-3.752h8.337v-4.737h-8.337v-3.752h8.337v-4.737h-8.337v-3.752h8.337v-4.737h-8.337v-34.59h6.989c3.794.003 7 3.209 7 7.003zm-47.126-7h6.989v34.59h-8.336v4.737h8.336v3.752h-8.336v4.737h8.336v3.752h-8.336v4.737h8.336v3.752h-8.336v4.737h8.336v3.752h-8.336v4.737h8.336v3.752h-8.336v4.737h3.577l2.191 4.61h2.569v37.516h-13.99v-116.898c0-3.794 3.206-7 7-7z"/><path d="m137.247 153.976 1.881-.335 15.179-17.076-21.242 3.786z"/><path d="m95.703 52.885c-3.722 1.133-5.841 5.105-4.708 8.827l30.301 98.734c1.133 3.722 14.667-.397 13.534-4.119l-30.301-98.734c-1.133-3.722-5.105-5.84-8.826-4.708z"/><path d="m132.991 164.007c1.775.976 3.331 2.297 4.59 3.867l66.666-74.998-6.908-1.26z"/><path d="m233.846 79.87c-.822-2.648-2.745-4.938-5.485-6.118l-10.673-4.598c-1.522-.656-3.286.046-3.942 1.568-.448 1.039-.251 2.184.397 3.019l13.559 2.473c2.517.459 4.648 1.807 6.144 3.656z"/><path d="m125.635 165.118c-6.802 0-12.316 5.514-12.316 12.316s5.514 12.316 12.316 12.316 12.316-5.514 12.316-12.316-5.515-12.316-12.316-12.316zm7.316 12.316c0 4.034-3.282 7.315-7.316 7.315s-7.315-3.281-7.315-7.315 3.281-7.316 7.315-7.316 7.316 3.282 7.316 7.316z"/><path d="m224.417 94.217c.485.089.969.131 1.444.131 3.791 0 7.157-2.704 7.861-6.565.793-4.347-2.088-8.513-6.435-9.306l-92.464-16.862c-4.355-.799-8.514 2.089-9.306 6.435-.793 4.347 2.088 8.513 6.435 9.306z"/></g></svg>