<svg id="Layer_1" enable-background="new 0 0 207.675 168.079" viewBox="0 0 207.675 168.079" xmlns="http://www.w3.org/2000/svg"><g><ellipse cx="185.174" cy="22.501" rx="22.5" ry="22.5" transform="matrix(.986 -.165 .165 .986 -1.174 30.882)"/><path d="m173.614 133.129h2.323c2.989 0 5.421 2.432 5.421 5.421v17.663h-5.516v10h21.032v-10h-5.516v-17.663c0-8.503-6.918-15.421-15.421-15.421h-5.725l3.087 3.527c1.626 1.858 1.688 4.545.315 6.473z"/><path d="m14.065 165.261c-2.587-2.989-3.854-6.807-3.569-10.75.283-3.916 2.067-7.487 5.02-10.069v-5.892c0-2.989 2.432-5.421 5.421-5.421h7.65l11.56-10h-19.21c-8.503 0-15.421 6.918-15.421 15.421v17.663h-5.516v10h14.983c-.316-.305-.628-.616-.918-.952z"/><path d="m60.628 105.087h-40.08c-3.891 0-7.074 3.183-7.074 7.074s3.183 7.074 7.074 7.074h24.102l15.8-13.668z"/><path d="m159.406 72.732 17.74-11.182c3.286-2.082 4.272-6.475 2.189-9.761-2.082-3.286-6.475-4.272-9.761-2.189l-11.819 7.45z"/><path d="m146.214 121.249c-1.9-2.17-1.679-5.482.491-7.382l2.145-1.877-11.436-21.85-1.396-2.667 4.075-2.569c-.13-.495-.226-.999-.279-1.509l-1.485-14.102-42.884 27.03-7.53 20.308c.688.293 1.329.325 1.859-.01l37.758-23.799 1.396 2.667 14.466 27.64h-58.561c-.634.848-1.341 1.643-2.144 2.338l-8.857 7.662h82.782z"/><path d="m165.779 114.715-3.39 2.967-5.248-5.996c-1.062-1.213-2.923-1.337-4.136-.275l-4.783 4.186c-1.213 1.062-1.337 2.923-.275 4.136l14.43 16.486c1.062 1.213 2.923 1.337 4.137.275l4.783-4.187c1.213-1.062 1.337-2.923.275-4.136l-5.248-5.996 3.743-3.276c-.712-.465-1.375-1.009-1.958-1.645z"/><path d="m184.984 105.84 3.721-3.257 5.248 5.996c1.062 1.213 2.923 1.337 4.136.275l4.784-4.187c1.213-1.062 1.337-2.923.275-4.136l-14.43-16.486c-1.062-1.213-2.923-1.337-4.136-.275l-4.784 4.187c-1.213 1.061-1.337 2.923-.275 4.136l5.248 5.996-3.489 3.054 2.009 2.192c.704.767 1.265 1.613 1.693 2.505z"/><path d="m62.401 106.92-45.321 39.206c-5.222 4.517-5.792 12.411-1.275 17.631 2.472 2.858 5.955 4.322 9.459 4.322 2.897 0 5.809-1.002 8.172-3.046l47.748-41.305c1.592-1.377 2.811-3.134 3.542-5.107l13.554-36.552 2.408.121-3.525 9.506 7.864-4.957v-.082c.06-.009.121-.022.181-.032l32.773-20.657-2.208-20.973c-.596-5.648 3.516-10.727 9.164-11.322.366-.039.731-.058 1.092-.058 5.278 0 9.677 3.965 10.23 9.223l1.146 10.887 3.656-2.304c5.474-9.119 4.016-18.759-.408-24.302-5.485-6.876-17.879-5.334-25.736 1.416-11.587 8.315-27.821 21.087-44.413 26.144-4.879 1.893-7.818 3.656-9.391 5.56-1.364 1.281-2.469 2.878-3.164 4.752l-5.846 15.764z"/><path d="m142.102 83.154c.18 1.703.9 3.304 2.059 4.567l25.642 27.979c1.577 1.722 3.735 2.595 5.899 2.595 1.931 0 3.867-.695 5.403-2.102 3.257-2.985 3.478-8.046.492-11.303l-23.859-26.034-3.767-35.777c-.463-4.395-4.399-7.583-8.794-7.118-4.394.463-7.581 4.4-7.118 8.794z"/></g></svg>