<svg id="Layer_1" enable-background="new 0 0 212.586 185.6" height="512" viewBox="0 0 212.586 185.6" width="512" xmlns="http://www.w3.org/2000/svg"><g><path d="m50.944 100.37c-1.195-12.37-12.19-21.427-24.559-20.233s-21.427 12.188-20.233 24.558c.748 7.741 5.335 14.185 11.695 17.631h21.411c7.71-4.176 12.582-12.68 11.686-21.956z"/><path d="m200.074 185.397c1.011 0 2.038-.124 3.063-.382 6.694-1.687 10.754-8.48 9.067-15.175l-16.421-65.179c-1.338-5.312-5.979-9.134-11.449-9.428l-98.332-5.293-1.179 12.715c-.494 5.33-4.899 9.35-10.246 9.35-.319 0-.64-.014-.962-.044-2.738-.254-5.215-1.56-6.973-3.676s-2.585-4.792-2.331-7.531l3.682-39.714-1.637-25.106c-2.621 1.225-5.531 1.929-8.61 1.929-2.608 0-5.094-.51-7.39-1.404l4.354 66.767c.059.902.273 1.755.601 2.546.702 5.979 4.396 12.457 11.632 16.555h71.808c2.104-1.286 3.682-2.713 4.847-4.249l30.192 1.625 14.17 56.246c1.431 5.669 6.522 9.449 12.114 9.448z"/><path d="m161.189 139.474c3.89 0 7.073-3.183 7.073-7.073s-3.183-7.073-7.073-7.073h-153.511c-3.89 0-7.073 3.183-7.073 7.073s3.183 7.073 7.073 7.073h3.508l-.594 3-6.56 33.126h-4.032v10h19.022v-10h-4.796l6.027-30.432h128.36l6.027 30.432h-4.796v10h19.022v-10h-4.032l-6.561-33.127-.594-3h3.51z"/><path d="m72.74 34.759-6.138 66.208c-.408 4.399 2.828 8.297 7.228 8.705.251.023.5.035.748.035 4.084 0 7.571-3.114 7.956-7.262l6.049-65.242c-1.624.417-3.315.662-5.067.662-3.958-.002-7.643-1.151-10.776-3.106z"/><path d="m68.442 31.176c-2.312-2.533-3.994-5.64-4.803-9.088-1.377 1.74-3.502 2.859-5.893 2.859-4.151 0-7.516-3.365-7.516-7.516s3.365-7.516 7.516-7.516c2.391 0 4.516 1.12 5.893 2.859.808-3.449 2.491-6.555 4.803-9.089-2.955-2.301-6.66-3.685-10.695-3.685-9.627 0-17.432 7.804-17.432 17.432s7.804 17.432 17.432 17.432c4.035-.001 7.74-1.385 10.695-3.688z"/><path d="m57.747 20.147c1.5 0 2.716-1.216 2.716-2.716s-1.216-2.716-2.716-2.716-2.716 1.216-2.716 2.716c0 1.501 1.216 2.716 2.716 2.716z"/><path d="m66.083 17.432c0 9.627 7.804 17.432 17.432 17.432s17.432-7.804 17.432-17.432-7.805-17.432-17.432-17.432-17.432 7.804-17.432 17.432zm17.432-7.516c4.151 0 7.516 3.365 7.516 7.516s-3.365 7.516-7.516 7.516-7.516-3.365-7.516-7.516 3.365-7.516 7.516-7.516z"/><path d="m83.515 14.716c-1.5 0-2.716 1.216-2.716 2.716s1.216 2.716 2.716 2.716 2.716-1.216 2.716-2.716-1.216-2.716-2.716-2.716z"/></g></svg>