<svg id="Layer_1" enable-background="new 0 0 267.649 252.31" viewBox="0 0 267.649 252.31" currentColor="currentColor" xmlns="http://www.w3.org/2000/svg"><g><path d="m69.705 198.987-46.754 41.039h-20.554c-1.324 0-2.397 1.073-2.397 2.396v9.888h69.635v-9.888c0-1.323-1.073-2.396-2.397-2.396h-20.073l32.695-28.69c-4.519-2.977-8.089-7.278-10.155-12.349z"/><path d="m73.159 124.475c2.607 4.125 4.954 8.834 6.662 14.138l21.955 23.449c1.724.024 3.499.057 5.317.098-1.389-2.35-2.096-5.045-2.001-7.841.029-.8.045-1.572.045-2.32-.02-8.532-1.661-15.591-5.02-21.571-2.71-4.772-6.456-8.71-11.453-12.033-3.486-2.344-7.274-4.058-10.828-5.328l-.446 6.11c-.185 2.515-1.927 4.588-4.231 5.298z"/><path d="m265.252 240.026h-31.11l-8.406-23.251c4.954-7.069 7.871-15.672 7.871-24.96 0-20.082-13.597-36.98-32.083-42.016l-12.413-34.334 10.744-9.428c1.66-1.456 1.824-3.985.367-5.644l-5.277-6.013c-1.458-1.661-3.985-1.825-5.645-.368l-5.592 4.908-6.988-19.33 10.673-9.446c1.552-1.373 1.696-3.743.323-5.294-1.372-1.551-3.743-1.694-5.294-.323l-14.855 13.147c.836.782 1.535 1.701 2.063 2.721.701 1.354 1.106 2.877 1.12 4.478.003.341-.011.685-.044 1.031-.026.28-.068.555-.116.827l6.504 17.994-43.439 38.129c.321 2.985.488 6.038.479 9.15 0 1.088-.02 2.186-.056 3.294-.103 2.976-1.083 5.704-2.683 7.949 1.002.069 2.006.144 3.012.221l42.608-37.39 8.122 22.467c-12.219 1.373-22.909 7.795-29.927 17.138-.467.621-.916 1.256-1.35 1.902-7.191-.986-14.576-1.702-21.616-2.22-.843-.062-1.679-.121-2.511-.177-2.612 2.554-6.187 4.117-10.143 4.117-.161 0-.321-.003-.475-.006-.298-.01-.591-.045-.886-.073-2.021-.189-3.944-.778-5.677-1.74-1.308-.726-2.512-1.652-3.563-2.777-.036-.038-.065-.08-.1-.118-.116-.126-.22-.26-.331-.39-.436-.012-.868-.023-1.29-.033-2.365-.058-4.51-.096-6.374-.119l-19.887-21.242-19.447-20.772 9.553.696c.301.021.594.004.88-.039 1.812-.269 3.262-1.758 3.4-3.661l.483-6.635c-2.081-.668-4.047-1.192-5.752-1.579-.039 0-.082 0-.121 0-2.513 0-6.464-.733-10.601-2.275-2.208-.823-4.46-1.882-6.586-3.187l-7.376-.537-.09-.096-.089.083-14.876-1.084c-2.203-.16-4.119 1.497-4.279 3.7l-.582 7.978c-.16 2.203 1.495 4.12 3.699 4.28l12.062.879 40.85 43.634 1.991 2.127c-.869.404-1.704.869-2.515 1.367-7.125 4.373-11.888 12.221-11.888 21.194 0 3.064.557 5.997 1.571 8.708 1.928 5.156 5.518 9.499 10.118 12.381 3.823 2.395 8.34 3.784 13.184 3.784 6.747 0 32.095-.146 56.145-3.17.307.641.627 1.272.963 1.895 7.36 13.629 21.771 22.891 38.347 22.891 8.824 0 17.029-2.632 23.89-7.143l4.265 11.799h-17.797c-1.324 0-2.398 1.073-2.398 2.396v9.888h69.635v-9.888c.003-1.322-1.07-2.395-2.394-2.395zm-160.376-50.84c0 .069-.009.137-.01.206-.106 4.168-3.379 7.543-7.505 7.811-.175.011-.348.026-.526.026-.287 0-.569-.017-.848-.046-4.043-.424-7.193-3.843-7.193-7.997 0-4.441 3.6-8.041 8.042-8.041 1.008 0 1.969.193 2.858.532l-5.025 5.545c-1.085 1.197-.993 3.046.201 4.131.561.506 1.264.755 1.964.755.797 0 1.591-.322 2.169-.959l3.149-3.475 1.876-2.069c.538 1.079.848 2.293.848 3.581zm-8.041 18.85c-3.658 0-7.062-1.06-9.953-2.863-3.068-1.914-5.538-4.68-7.09-7.974-.823-1.747-1.387-3.636-1.639-5.627-.099-.783-.167-1.576-.167-2.386 0-10.408 8.438-18.849 18.849-18.849 1.656 0 3.254.235 4.785.637 1.581.414 3.083 1.019 4.473 1.805.365.207.725.423 1.074.652l-1.537 1.696-.102.112c-1.842-1.15-3.926-1.942-6.161-2.288-.827-.128-1.669-.215-2.532-.215-9.085 0-16.449 7.364-16.449 16.449 0 .138.017.271.021.407.1 4.051 1.661 7.73 4.179 10.544 1.2 1.341 2.608 2.487 4.186 3.378 2.384 1.344 5.131 2.12 8.063 2.12 9.083 0 16.449-7.363 16.449-16.449 0-2.17-.431-4.236-1.194-6.133-.564-1.403-1.32-2.704-2.229-3.885l1.64-1.81c.99 1.227 1.821 2.583 2.481 4.033 1.083 2.378 1.702 5.012 1.702 7.794 0 10.412-8.439 18.852-18.849 18.852zm112.496 7.431c-5.256 4.289-11.965 6.864-19.277 6.864-9.914 0-18.718-4.731-24.293-12.053-.445-.586-.868-1.189-1.271-1.807-3.127-4.791-4.952-10.51-4.952-16.657 0-8.493 3.474-16.175 9.074-21.707.595-.587 1.214-1.15 1.855-1.688 5.228-4.382 11.944-7.041 19.283-7.112.102-.001.202-.008.303-.008 6.586 0 12.68 2.094 17.667 5.643 7.772 5.531 12.848 14.607 12.848 24.872 0 2.711-.358 5.338-1.022 7.841-1.67 6.304-5.307 11.807-10.215 15.812z"/><path d="m191.163 165.213c-.368-.016-.737-.028-1.109-.028-5.436 0-10.489 1.632-14.703 4.429-.729.483-1.434 1.001-2.11 1.553-5.99 4.883-9.817 12.317-9.817 20.648 0 5.931 1.94 11.406 5.217 15.832.45.606.927 1.191 1.426 1.757 4.88 5.541 12.023 9.041 19.987 9.041 6.874 0 13.14-2.605 17.865-6.883 5.382-4.872 8.765-11.914 8.765-19.747 0-.029-.002-.058-.002-.087-.021-6.413-2.307-12.293-6.103-16.879-4.665-5.637-11.607-9.315-19.416-9.636zm-1.109 39.622c-1.139 0-2.239-.161-3.292-.436-.982-.256-1.922-.614-2.799-1.08-4.12-2.186-6.928-6.517-6.928-11.504 0-7.19 5.828-13.02 13.02-13.02 1.106 0 2.174.153 3.2.413 1.247.315 2.42.809 3.495 1.456.961.578 1.846 1.271 2.625 2.07 2.286 2.346 3.699 5.546 3.699 9.08 0 1.507-.269 2.948-.74 4.294-1.778 5.078-6.597 8.727-12.28 8.727z"/><path d="m125.838 92.182c4.619 3.48 10.183 6.236 16.546 7.78l-2.272 2.011c-1.552 1.373-1.696 3.742-.323 5.295 1.372 1.551 3.743 1.694 5.294.321l7.113-6.295c.591.021 1.184.036 1.786.036h.156c.565-.002 1.122-.011 1.672-.025 3.897-.109 7.061-2.991 7.665-6.701-.863.24-1.772.372-2.713.372-.313 0-.623-.017-.936-.046-.133-.012-.262-.028-.394-.04-3.425-.325-6.689-.779-9.792-1.35-16.298-2.997-28.232-9.107-36.709-15.397 3.281 5.043 7.475 9.972 12.907 14.039z"/><ellipse cx="136.238" cy="22.495" rx="22.495" ry="22.495" transform="matrix(.717 -.697 .697 .717 22.903 101.374)"/><path d="m52.951 103.063c.171.112.343.224.516.333 1.393.883 2.856 1.66 4.333 2.323 4.846 2.175 9.792 3.178 12.535 3.093 1.737.389 3.644.896 5.622 1.515.668.209 1.339.429 2.021.667 3.926 1.368 8.049 3.221 11.793 5.737 4.79 3.183 8.981 7.239 12.089 12.718 3.088 5.498 5.252 12.561 5.275 22.551 0 .77-.013 1.565-.043 2.388-.046 1.371.138 2.694.505 3.942.415 1.416 1.076 2.729 1.933 3.891.27.366.555.72.862 1.054.33.358.683.695 1.053 1.014.826.71 1.746 1.314 2.741 1.792 1.12.537 2.332.915 3.611 1.098.447.064.901.108 1.363.124.144.005.287.007.429.007 2.68 0 5.166-.859 7.211-2.31.784-.556 1.505-1.195 2.142-1.914 1.86-2.1 3.033-4.83 3.136-7.853.036-1.084.056-2.161.056-3.232.007-2.58-.114-5.083-.33-7.521-1.121-12.621-5.115-23.298-10.898-31.69-5.147-7.524-11.552-13.183-18.039-17.364-6.184-3.977-12.439-6.678-18.123-8.554.348-.467.716-.919 1.071-1.381 4.989-6.491 10.6-12.506 15.734-17.825-7.705-8.773-10.693-16.504-11.261-18.115-1.779-5.242 1.023-10.935 6.246-12.707 1.042-.355 2.124-.534 3.219-.534 1.972 0 3.839.584 5.418 1.605 1.846 1.192 3.297 2.983 4.043 5.165.056.137.144.365.284.681.284.643.775 1.685 1.521 2.995.793 1.395 1.951 3.211 3.505 5.229 1.18 1.532 2.583 3.178 4.266 4.86.71.705 1.442 1.387 2.189 2.053-.185-.472-.364-.939-.534-1.403-1.419-3.826-2.338-7.312-2.888-9.79-.275-1.239-.459-2.225-.569-2.88-.056-.326-.094-.569-.115-.717-.023-.149-.021-.155-.023-.155-.128-.996-.442-1.921-.891-2.756-.43-2.097-1.345-4.015-2.83-5.589-6.036-6.401-18.955-9.181-31.099.424-16.313 13.061-24.633 23.196-34.22 42.568-.18.364-.359.724-.54 1.094-6.306 10.991-1.414 18.665 5.681 23.369z"/><path d="m113.554 53.992c-1.888-2.354-3.283-4.515-4.269-6.246-.778-1.371-1.302-2.472-1.615-3.182-.156-.354-.257-.612-.313-.756-.015-.035-.026-.063-.034-.084-.699-2.043-2.144-3.616-3.924-4.529-1.859-.953-4.086-1.186-6.221-.46-4.185 1.42-6.421 5.966-5.002 10.15v-.003c.244.693 2.951 8.4 10.766 17.339.961 1.1 1.987 2.215 3.109 3.342 1.229 1.239 2.565 2.483 4.003 3.719 9.175 7.882 22.699 15.361 41.52 18.548 2.707.458 5.505.842 8.435 1.11.253.023.504.035.753.035.303 0 .602-.022.898-.056.65-.074 1.277-.226 1.874-.447 2.448-.911 4.358-2.992 4.989-5.626.087-.366.159-.74.195-1.126.248-2.634-.818-5.081-2.652-6.715-1.229-1.096-2.801-1.829-4.567-1.995-18.398-1.757-30.546-7.68-38.736-14.025-2.024-1.567-3.81-3.161-5.384-4.725-1.458-1.458-2.725-2.895-3.825-4.268z"/></g></svg>