<svg id="Layer_1" enable-background="new 0 0 512 512" viewBox="0 0 512 512" currentColor="currentColor" xmlns="http://www.w3.org/2000/svg"><g id="Layer_2_00000150103137692416954900000011649364105110925466_"><g id="weight"><path d="m425.8 258.7c-8.9-17.3-9.9-31.8-3.9-49.9 12.1-37 20.1-75 18.1-114.4-1.4-26.5-12.3-47.8-35.1-61.5-12.6-7.6-26.2-14.2-40.2-18.6-47.1-14.9-95.7-16-144.5-12.9-33.9 2.2-67.1 7.8-98.1 22.7-33.5 16.1-50.6 42-50.1 79.8.5 38.4 8.6 75.2 20.4 111.3 4.6 14 3.5 25.3-3.4 38.4-35.3 68-29.8 133.7 16 194.8 23.5 31.4 53.3 56 94.5 60.8 18.5 2.2 55.7 3.2 55.7 2.5 12 0 24 .8 36-.2 20.1-1.7 40.3-3.2 58.6-13.3 82.6-45.6 123.2-148.4 76-239.5zm-50.1-141.9c-1.8 19.9-8.2 38.2-23 52.6-5 4.9-9.8 6.2-16.9 3.1-53.2-23.1-106.5-22.9-159.7.2-6.2 2.7-10.8 2-15.3-2.5-20.9-21.2-27.7-46.8-22.6-75.6 1.9-10.5 10-17.4 19.5-20.3 17.4-5.5 35.1-9.7 53-12.7 15.2-2.4 30.8-2 46.2-2.9 0 0 17.6.4 77 8.1 3.7.5 7.3 1.9 10.9 3.2 25.5 8.7 33.4 20.1 30.9 46.8z"/></g></g></svg>