<svg id="Layer_1" enable-background="new 0 0 230.124 162.863" height="512" viewBox="0 0 230.124 162.863" width="512" xmlns="http://www.w3.org/2000/svg"><g><path d="m67.324 18.685c-.069-.409-.113-.826-.113-1.254 0-4.151 3.365-7.516 7.516-7.516 1.376 0 2.661.376 3.771 1.021 2.283-2.619 5.219-4.643 8.555-5.832-3.156-3.153-7.513-5.104-12.326-5.104-7.137 0-13.263 4.293-15.96 10.434 3.514 2.03 6.429 4.852 8.557 8.251z"/><path d="m74.727 34.863c.55 0 1.092-.032 1.629-.082-1.75-2.926-2.79-6.316-2.878-9.946-1.619-.271-3.063-1.056-4.155-2.187.108.27.236.529.335.803 1.294 3.58 1.737 7.327 1.35 11.005 1.2.261 2.441.407 3.719.407z"/><path d="m72.011 17.432c0 1.218.807 2.237 1.912 2.581.389-1.796 1.018-3.501 1.846-5.088-.321-.134-.673-.209-1.042-.209-1.5 0-2.716 1.216-2.716 2.716z"/><path d="m45.815 54.374c8.636.195 16.986-4.615 20.89-12.938 5.278-11.251.436-24.648-10.814-29.926s-24.648-.437-29.926 10.814c-3.161 6.737-2.689 14.243.612 20.316.802.256 1.585.605 2.329 1.076z"/><path d="m104.023 88.676c-.024.12-.059.235-.087.354-.049.203-.095.406-.157.608-.053.173-.118.34-.18.51-.047.13-.085.261-.138.39-.008.019-.017.035-.025.054-.011.027-.021.054-.033.081l12.874 8.115c.579.367 1.044.823 1.395 1.357.909-.909 2.028-1.406 3.327-1.406h55.326c4.05 0 7.54 2.407 9.139 5.861l.143.006 20.457 49.604c1.989 4.823 6.648 7.737 11.561 7.737 1.588 0 3.202-.304 4.761-.947 6.382-2.632 9.422-9.939 6.79-16.321l-23.494-56.969c-1.853-4.493-6.142-7.505-10.997-7.722l-53.988-2.417c-1.095-.499-2.303-1.012-3.647-1.548-12.637-3.984-23.344-14.426-32.825-22.892v33.357c.012.731-.055 1.464-.202 2.188z"/><path d="m77.623 74.422-3.803-9.055c-1.065-2.537-1.08-5.336-.039-7.883 1.04-2.547 3.01-4.537 5.547-5.602 1.272-.534 2.613-.805 3.984-.805.106 0 .209.009.314.012v-9.111c-.959-.56-1.88-1.179-2.732-1.883-.104-.003-.21-.012-.314-.013l.014-.259c-.82-.705-1.586-1.47-2.286-2.295-1.165.207-2.358.335-3.582.335-1.446 0-2.855-.156-4.217-.443-.394 1.701-.964 3.374-1.723 4.992-1.198 2.553-2.816 4.831-4.736 6.787l-.893 16.104z"/><path d="m15.516 135.2c0-2.989 2.433-5.421 5.422-5.421h155c2.989 0 5.421 2.432 5.421 5.421v17.663h-5.516v10h21.031v-10h-5.516v-17.663c0-8.503-6.918-15.421-15.421-15.421h-122.457l14.466-27.641 1.396-2.667 37.758 23.799c3.286 2.082 10.858-9.868 7.572-11.951l-12.83-8.087c-.998 1.201-2.265 2.159-3.728 2.81-.064.029-.124.063-.188.09-.004.001-.007.004-.011.005-.115.048-.233.083-.348.127-.198.075-.395.154-.599.218-.221.069-.446.119-.67.173-.103.024-.203.057-.307.078-.676.139-1.364.21-2.061.21-4.16 0-7.889-2.478-9.499-6.313l-4.782-11.385-52.349-32.995c-3.286-2.082-7.679-1.097-9.761 2.189s-1.097 7.679 2.189 9.761l41.127 25.922-1.395 2.668-17.266 32.99h-21.256c-8.504 0-15.422 6.918-15.422 15.421v17.663h-5.516v10h21.031v-10h-5.516v-17.664z"/><path d="m121 115.884h55.326c3.891 0 7.074-3.183 7.074-7.074 0-3.891-3.183-7.074-7.074-7.074h-55.326c-3.89.001-3.89 14.148 0 14.148z"/><path d="m93.884 44.768c-2.822 0-5.511-.575-7.958-1.614v30.103l-2.3-4.868v-14.996c-1.134-.045-2.293.142-3.408.61-4.074 1.711-5.989 6.4-4.278 10.474l10.6 25.239c.145.348.32.68.51 1.001.041.07.083.139.126.207.184.29.382.57.6.833.044.053.093.101.139.153.186.211.382.412.589.603.072.066.142.133.215.196.252.217.516.419.793.604.046.03.094.056.14.085 1.237.784 2.699 1.244 4.272 1.244 4.418 0 8-3.582 8-8v-43.529c-2.468 1.063-5.185 1.655-8.04 1.655z"/><path d="m76.453 24.337c0 9.627 7.804 17.432 17.432 17.432s17.432-7.804 17.432-17.432-7.805-17.432-17.432-17.432-17.432 7.805-17.432 17.432zm17.432 7.516c-4.151 0-7.516-3.365-7.516-7.516s3.365-7.516 7.516-7.516 7.516 3.365 7.516 7.516c-.001 4.151-3.366 7.516-7.516 7.516z"/><path d="m93.885 21.621c-1.5 0-2.716 1.216-2.716 2.716s1.216 2.716 2.716 2.716 2.716-1.216 2.716-2.716c-.001-1.5-1.217-2.716-2.716-2.716z"/></g></svg>