<svg id="Layer_1" enable-background="new 0 0 277.273 278.994"  currentColor="currentColor" viewBox="0 0 277.273 278.994" xmlns="http://www.w3.org/2000/svg"><g><path d="m25.637 266.494c0 6.903 5.597 12.5 12.5 12.5s12.5-5.597 12.5-12.5c0-.071-.009-.141-.011-.212h-24.978c-.002.071-.011.14-.011.212z"/><path d="m226.637 266.494c0 6.903 5.597 12.5 12.5 12.5s12.5-5.597 12.5-12.5c0-.071-.01-.141-.011-.212h-24.979c0 .071-.01.14-.01.212z"/><ellipse cx="138.624" cy="22.5" rx="22.494" ry="22.495" transform="matrix(.227 -.974 .974 .227 85.269 152.408)"/><path d="m136.479 125.923 11.428.001c-4.099-2.915-8.238-5.128-11.935-6.895-.451-6.591-.011-13.478.849-20.204 2.612 1.019 5.495 1.603 8.504 1.603.074 0 .147 0 .221-.001 7.943-.05 16.412-3.267 26.49-9.803 3.7-2.413 4.743-7.368 2.331-11.07-2.413-3.702-7.37-4.745-11.069-2.331-8.574 5.623-14.537 7.253-17.752 7.204-2.449-.056-3.504-.604-4.751-1.618-.356-.29-.712-.686-1.065-1.131.684-3.438 1.363-6.699 1.945-9.673 2.87-9.952-.884-21.864-9.42-23.992-.625-.156-1.273-.271-1.935-.353-.805-.37-1.681-.618-2.613-.703-1.98-.18-3.854.383-5.356 1.452-3.321 1.014-6.634 2.922-9.51 5.856 2.23.003 4.317.071 6.158.164 3.733.188 6.434.481 7.13.56 4.632.553 8.133 4.167 8.749 8.554.076.542.115 1.094.099 1.656-.008.301-.025.603-.062.908-.599 5.025-4.866 8.818-9.92 8.818-.396 0-.795-.025-1.192-.072-.031-.003-.265-.031-.771-.081-.556-.057-1.373-.131-2.391-.206-.183-.014-.384-.027-.586-.041-1.864-.128-4.494-.262-7.332-.262-3.549 0-6.808.213-9.404.607-.428 1.551-.828 3.079-1.182 4.578 2.279 2.636 6.24 6.578 13.061 11.961 2.098 1.657 3.425 4.03 3.733 6.683.313 2.656-.431 5.27-2.085 7.367-1.91 2.412-4.772 3.798-7.854 3.798-2.238 0-4.438-.765-6.196-2.156-1.165-.922-2.269-1.823-3.342-2.713.083 4.986.475 10.305 1.172 16.296.379 1.953.877 3.689 1.472 5.239h4.074z"/><path d="m108.994 107.256c2.364 0 4.704-1.042 6.283-3.04 2.739-3.466 2.149-8.498-1.317-11.237-5.534-4.364-9.585-8.104-12.359-11.129-.839-.915-1.565-1.766-2.175-2.547-1.317-1.672-2.103-3.017-2.496-3.902-.12-.271-.203-.495-.262-.676.799-.443 2.616-1.211 4.997-1.604.709-.136 1.465-.251 2.244-.352 2.771-.36 5.897-.509 8.812-.506 2.603 0 5.037.109 6.979.234.381.024.751.049 1.091.074 1.039.078 1.872.153 2.436.209.565.057.812.088.812.088 4.386.52 8.367-2.611 8.891-6.997.521-4.39-2.611-8.367-6.998-8.892-.135-.015-2.937-.349-7.052-.555-1.832-.091-3.924-.158-6.159-.159-.541.002-1.096.011-1.651.02-5.315.085-11.206.515-16.748 2.177-3.058.957-6.127 2.274-8.897 4.782-2.783 2.421-4.97 6.635-4.882 10.956.081 5.462 2.527 10.107 6.298 14.98 3.037 3.86 7.148 7.97 12.592 12.579 1.445 1.223 2.964 2.474 4.606 3.774 1.469 1.16 3.218 1.722 4.955 1.723z"/><path d="m79.72 232.255c1.708.796 3.503 1.172 5.271 1.172 4.71 0 9.219-2.674 11.339-7.225 17.166-36.855 26.692-66.774 31.303-83.418 1.17.61 2.349 1.276 3.495 1.996 3.459 2.133 6.545 4.725 8.426 7.232 1.898 2.573 2.701 4.671 2.736 7.44-.008 2.219-.591 5.24-2.928 9.532-2.328 4.266-6.452 9.67-13.068 15.945-5.007 4.753-5.213 12.665-.459 17.672s12.668 5.21 17.674.457c7.992-7.599 13.814-14.839 17.778-22.063 3.955-7.195 6.012-14.508 6.003-21.542.031-7.443-2.337-14.136-5.722-19.533h-59.108c-4.666 16.163-13.574 43.066-28.792 75.726-2.916 6.255-.206 13.693 6.052 16.609z"/><path d="m3 264.283h22.844 24.586 176.414 24.586 22.843c1.656 0 3-1.344 3-3v-20.999c0-1.657-1.344-3-3-3h-12.987l-39.771-125.202c-.317-.998-1.162-1.682-2.154-1.89l24.797-30.347c.498-.609.408-1.508-.201-2.008l-5.891-4.811c-.609-.5-1.508-.409-2.006.202l-44.693 54.694-40.799-.001h-14.109l-30.767-.001h-2.717-37.976c-13.809.004-24.997 11.192-24.999 25.004v84.359h-37c-1.657 0-3 1.343-3 3v20.999c0 1.657 1.343 3.001 3 3.001zm100.032-126.362h14.148 12.465 30.577 46.418l31.562 99.362h-188.202v-84.359c.016-8.284 6.718-14.986 14.999-15.003z"/></g></svg>