<?xml version="1.0" encoding="iso-8859-1"?>
<!-- Generator: Adobe Illustrator 19.0.0, SVG Export Plug-In . SVG Version: 6.00 Build 0)  -->
<svg xmlns="http://www.w3.org/2000/svg" xmlns:xlink="http://www.w3.org/1999/xlink" version="1.1" id="Layer_1" x="0px" y="0px" viewBox="0 0 512 512" style="enable-background:new 0 0 512 512;" xml:space="preserve" currentColor="currentColor">
<g>
	<path d="M467,302h-45v-93.516c50.75-7.357,90-50.729,90-103.484C512,47.109,464.891,0,407,0S302,47.109,302,105   c0,52.755,39.25,96.127,90,103.484V302H242v-93.393c20.647-2.986,39.862-11.737,55.225-25.587   c-7.174-10.063-12.843-21.216-17.113-33.019H227c-24.814,0-45-20.186-45-45s20.186-45,45-45h53.112   c4.27-11.803,9.939-22.956,17.113-33.019C278.182,9.811,253.323,0,227,0c-57.891,0-105,47.109-105,105   c0,52.755,39.25,96.127,90,103.484V302H45c-24.814,0-45,20.186-45,45v45h60v90H30v30h90v-30H90v-30h152v30h-30v30h90v-30h-30v-30   h120v30h-30v30h90v-30h-30v-90h90v-45C512,322.186,491.814,302,467,302z M362,105c0-24.814,20.186-45,45-45s45,20.186,45,45   s-20.186,45-45,45S362,129.814,362,105z M90,422v-30h152v30H90z M392,422H272v-30h120V422z"/>
	<path d="M422,105c0-8.276-6.738-15-15-15s-15,6.724-15,15s6.738,15,15,15S422,113.276,422,105z"/>
	<path d="M227,90c-8.262,0-15,6.724-15,15s6.738,15,15,15h46.216c-0.571-4.955-1.216-9.89-1.216-15s0.645-10.045,1.216-15H227z"/>
</g>















</svg>
