<svg id="Layer_1" enable-background="new 0 0 229.165 200.461" height="512" viewBox="0 0 229.165 200.461" width="512" xmlns="http://www.w3.org/2000/svg"><g><path d="m5.516 0v190.274h-5.516v10h21.031v-10h-5.516v-23.084h162.179c2.989 0 5.421 2.432 5.421 5.421v17.663h-5.515v10h21.032v-10h-5.516v-17.663c0-8.503-6.918-15.421-15.421-15.421h-162.179v-104.2h16.174l4.011-5.125-3.15-2.465-2.81 3.59h-10.289v-16.569h-3.937v-32.421z"/><path d="m67.523 115.433c-1.195-12.37-12.19-21.427-24.559-20.233-12.369 1.195-21.428 12.189-20.233 24.559.654 6.768 4.246 12.541 9.389 16.189h26.02c6.353-4.514 10.186-12.202 9.383-20.515z"/><path d="m79.335 124.494c-1.065-2.537-1.08-5.336-.039-7.883 1.02-2.498 2.937-4.453 5.403-5.533-2.77-1.194-5.368-2.713-7.745-4.511-2.843 2.143-4.757 5.475-4.963 9.308-.001.025.001.049 0 .073-.022.12-.049.238-.068.36-.946 6.343 1.904 14.357 9.338 19.639h2.884z"/><path d="m109.741 112.66v23.331c1.637.221 2.951 1.286 3.858 3.02 1.026-1.961 2.572-3.065 4.516-3.065h39.295c1.113-.885 2.023-1.824 2.769-2.807l30.192 1.625 14.17 56.246c1.428 5.67 6.52 9.45 12.112 9.449 1.011 0 2.038-.124 3.063-.382 6.694-1.687 10.754-8.48 9.067-15.175l-16.421-65.179c-1.338-5.312-5.979-9.134-11.449-9.428l-78.365-4.218c-3.755 2.969-8.09 5.228-12.807 6.583z"/><path d="m118.115 153.095h55.326c3.891 0 7.074-3.183 7.074-7.074 0-3.891-3.183-7.074-7.074-7.074h-55.326c-3.89.001-3.89 14.148 0 14.148z"/><path d="m109.741 145.613c.011.733-.056 1.466-.204 2.19-.024.12-.059.235-.087.354-.049.203-.095.407-.157.608-.053.173-.118.34-.18.51-.047.13-.085.261-.138.39-.008.018-.017.035-.025.054-.058.138-.126.271-.19.406-.084.181-.166.363-.259.538-.018.034-.04.066-.059.1-.477.865-1.068 1.65-1.761 2.334h2.401c3.657 0 3.876-12.498.658-13.998v6.514z"/><path d="m28.115 138.948c-3.891 0-7.074 3.183-7.074 7.074 0 3.891 3.183 7.074 7.074 7.074h64.089c-.945-.936-1.722-2.059-2.259-3.338l-4.54-10.81z"/><path d="m92.056 148.843c.145.348.32.68.51 1.001.041.07.083.139.126.207.184.29.382.57.6.833.044.053.093.101.139.153.186.211.382.412.589.603.072.066.142.133.215.196.252.216.516.419.794.604.046.03.094.056.14.085 1.237.784 2.699 1.244 4.272 1.244 4.418 0 8-3.582 8-8v-32.525c-2.579.565-5.254.872-8 .872s-5.421-.306-8-.872v19.14l-2.3-4.868v-14.856c-.171-.049-.343-.095-.513-.146-.968.024-1.948.218-2.895.615-4.074 1.711-5.989 6.4-4.278 10.474z"/><path d="m99.442 111.116c18.975 0 34.358-15.383 34.358-34.358s-15.383-34.358-34.358-34.358-34.358 15.383-34.358 34.358 15.382 34.358 34.358 34.358zm0-50.526c8.93 0 16.168 7.239 16.168 16.168s-7.239 16.168-16.168 16.168-16.168-7.239-16.168-16.168 7.238-16.168 16.168-16.168z"/><ellipse cx="99.442" cy="76.758" rx="8.211" ry="8.211" transform="matrix(.383 -.924 .924 .383 -9.528 139.256)"/></g></svg>