<svg fill="none" viewBox="0 0 25 25" xmlns="http://www.w3.org/2000/svg"><clipPath id="clip0_253_20922"><path d="m.407.023h24v24h-24z"/></clipPath><g clip-path="url(#clip0_253_20922)"><path d="m20.0072 14.6234c-.2-.1-.5.1001-.6.3001l-1.1 2.4c0 .1-.1.1999 0 .2999.3 1.5-.5 3.1-1.3 4-.8.8-2.2 1.3001-3.7 1.3001-1.4 0-2.6-.5001-3.39997-1.3001-.1-.1-.4-.3999-.5-.7999-.1.1-.2.2999-.4.2999h-5c-.3 0-.5-.2-.5-.5v-7c0-.3.2-.5.5-.5h5c.3 0 .5.2.5.5v6.4c.2-.4.49997-.6999.89997-.8.1 0 .1 0 .2-.1s.3-.1999.5-.4c.1-.1.1-.1999.1-.2999s0-.1.1-.2001c.1-.2.1-.4.2-.7v-.0999c0-.1 0-.2001 0-.3001v-3.4c0-.3.2-.5.5-.5h3.1l.4-1h-11.59997c-.3 0-.5-.2-.5-.5v-3.99995c0-.3.2-.5.5-.5h13.39997c.1 0 .2.00001.2.10001l1-2.30002c.1-.1 0-.3 0-.5-.1-.1-.2-.19998-.4-.19998h-15.19997c-1.4 0-2.500003 1.1-2.500003 2.5v15.00004c0 1.4 1.100003 2.5 2.500003 2.5h14.99997c1.4 0 2.5-1.1 2.5-2.5v-6.4c0-.5-.2-.7001-.4-.8001zm-2.3 1.2001c.2 0 .3-.1001.3-.3001l.9-1.9-2.6-1.2999-.8 1.8999c-.1.1001-.1.3 0 .4s.2.2001.3.3001c.5.2.9.4 1.3.7999.1.1001.2.1001.3.1001.2.1.2.1.3 0zm5-15.8000625c-.7 0-1.3.3999995-1.6 1.0000025l-4.4 10.40006 2.6 1.2999 4.9-10.29994c.1-.2.2-.50002.2-.80002 0-.899996-.8-1.6000025-1.7-1.6000025zm-9.7 16.5999625c-.6.6-.8 1.2001-.9 1.7001-.1.4-.2.7-.5 1-.6.6-.9.6999-.9.6999-.2.1-.3.2001-.3.4001s0 .3.1.5c.7.7 1.6 1 2.7 1 1.2 0 2.4-.4 3-1 1-1 1.6-3.1.5-4.2001-1-1.1-2.6-1.1-3.7-.1z" fill="currentColor"/></g></svg>