<svg id="Layer_1" enable-background="new 0 0 230.124 205.327" height="512" viewBox="0 0 230.124 205.327" width="512" xmlns="http://www.w3.org/2000/svg"><g><path d="m105.555 33.516.888-2.656c-2.846-5.256-3.406-11.698-.97-17.648 2.54-6.204 7.782-10.486 13.808-12.094-8.884-3.319-18.855.982-22.474 9.82-3.562 8.705.356 18.589 8.748 22.578z"/><path d="m66.704 83.9c5.278-11.251.436-24.648-10.814-29.926s-24.648-.437-29.926 10.814c-3.16 6.737-2.689 14.243.612 20.316.801.256 1.586.605 2.329 1.076l16.909 10.658c8.636.195 16.986-4.615 20.89-12.938z"/><path d="m117.673 142.607c.909-.909 2.028-1.406 3.327-1.406h55.326c4.05 0 7.54 2.407 9.139 5.862l.143.006 20.457 49.603c1.989 4.823 6.648 7.738 11.561 7.738 1.587 0 3.202-.305 4.761-.948 6.382-2.632 9.422-9.939 6.79-16.321l-23.495-56.969c-1.853-4.493-6.142-7.504-10.997-7.722l-53.989-2.417c-1.095-.499-2.303-1.012-3.646-1.548-14.071-4.436-25.749-16.879-36.006-25.684l-5.956 9.965c-2.591 4.335-8.068 6.162-12.738 4.251-.476-.195-.943-.428-1.387-.694-4.876-2.915-6.471-9.252-3.558-14.127l19.353-32.377 7.84-23.442c-3.275-1.488-5.98-3.735-7.999-6.455l-9.182 27.453-19.479 32.591c-.562.94-.907 1.948-1.053 2.968-1.69 5.51-1.189 12.459 3.034 19.097l46.358 29.22c.58.367 1.045.823 1.396 1.356z"/><path d="m181.358 177.664v17.663h-5.516v10h21.031v-10h-5.516v-17.663c0-8.503-6.918-15.421-15.421-15.421h-122.456l14.466-27.64 1.396-2.667 37.758 23.799c3.286 2.082 10.858-9.868 7.572-11.951l-87.373-55.07c-3.286-2.082-7.679-1.097-9.761 2.189s-1.097 7.679 2.189 9.761l41.127 25.922-1.396 2.667-17.266 32.99h-21.255c-8.503 0-15.421 6.918-15.421 15.421v17.663h-5.516v10h21.031v-10h-5.516v-17.663c0-2.989 2.432-5.421 5.421-5.421h155c2.99 0 5.422 2.432 5.422 5.421z"/><path d="m121 158.349h55.326c3.891 0 7.074-3.183 7.074-7.074s-3.183-7.074-7.074-7.074h-55.326c-3.891 0-3.891 14.148 0 14.148z"/><path d="m108.042 33.332-9.182 27.453-19.48 32.592c-2.267 3.792-1.03 8.705 2.762 10.971 3.795 2.265 8.705 1.03 10.972-2.762l19.926-33.336c.295-.495.537-1.021.72-1.567l8.421-25.181c-1.824-.212-3.65-.652-5.43-1.381-3.602-1.475-6.544-3.871-8.709-6.789z"/><path d="m108.25 14.349c-3.689 9.011.625 19.307 9.637 22.996 9.011 3.689 19.307-.625 22.996-9.636s-.625-19.307-9.637-22.996c-9.011-3.69-19.307.625-22.996 9.636zm23.998 9.824c-1.737 4.242-6.584 6.273-10.826 4.537s-6.273-6.583-4.537-10.826c1.737-4.242 6.583-6.273 10.826-4.537 4.242 1.737 6.273 6.584 4.537 10.826z"/><path d="m127.795 22.35c.73-1.783-.124-3.82-1.907-4.55s-3.82.124-4.55 1.907.124 3.82 1.907 4.55 3.82-.124 4.55-1.907z"/></g></svg>