<svg id="Layer_1" enable-background="new 0 0 241.419 234.732" height="512" viewBox="0 0 241.419 234.732" width="512" xmlns="http://www.w3.org/2000/svg"><g><path d="m5.516 6.48v218.252h-5.516v10h21.031v-10h-5.516v-23.084h171.716c2.989 0 5.421 2.432 5.421 5.421v17.663h-5.516v10h21.031v-10h-5.516v-17.663c0-8.503-6.918-15.421-15.421-15.421h-122.142l14.153-27.04 1.396-2.667 37.758 23.799c3.286 2.082 10.858-9.868 7.572-11.951l-87.372-55.07c-3.286-2.082-7.679-1.097-9.761 2.189s-1.097 7.679 2.189 9.761l41.127 25.923-1.396 2.667-16.952 32.389h-38.286v-133.779h16.174l4.011-5.125-3.15-2.465-2.81 3.59h-10.289v-16.569h-3.937v-30.82z"/><path d="m57.109 126.843c8.636.195 16.986-4.615 20.89-12.938 5.278-11.251.436-24.648-10.814-29.926s-24.648-.437-29.926 10.814c-3.16 6.737-2.689 14.243.612 20.316.801.256 1.585.605 2.329 1.076z"/><path d="m128.968 172.612c.909-.909 2.028-1.406 3.327-1.406h55.326c4.05 0 7.54 2.407 9.139 5.862l.143.006 20.458 49.603c1.989 4.823 6.648 7.738 11.561 7.738 1.588 0 3.202-.305 4.761-.948 6.383-2.632 9.422-9.939 6.79-16.321l-23.495-56.969c-1.853-4.493-6.142-7.504-10.997-7.722l-53.988-2.417c-1.095-.499-2.303-1.012-3.647-1.548-16.543-5.215-29.779-21.502-41.286-29.927-.072-.063-.15-.118-.223-.18v6.838c0 5.68-4.62 10.3-10.3 10.3s-10.3-4.62-10.3-10.3v-11.749c-1.908.71-3.596 1.827-4.899 3.429-4.613 5.669-6.116 15.717-.124 25.134l46.359 29.22c.578.367 1.043.823 1.395 1.357z"/><path d="m132.295 188.353h55.326c3.891 0 7.074-3.183 7.074-7.074 0-3.891-3.183-7.074-7.074-7.074h-55.326c-3.891.001-3.891 14.148 0 14.148z"/><path d="m88.537 125.221c0 4.418 3.582 8 8 8s8-3.582 8-8v-54.377c-2.579.565-5.254.872-8 .872s-5.421-.306-8-.871z"/><path d="m96.537 68.716c18.975 0 34.358-15.383 34.358-34.358s-15.383-34.358-34.358-34.358-34.358 15.383-34.358 34.358 15.382 34.358 34.358 34.358zm-16.169-34.358c0-8.93 7.239-16.168 16.168-16.168 8.93 0 16.168 7.239 16.168 16.168s-7.239 16.168-16.168 16.168-16.168-7.239-16.168-16.168z"/><path d="m96.537 42.568c4.535 0 8.211-3.676 8.211-8.211s-3.676-8.211-8.211-8.211c-4.534 0-8.21 3.676-8.21 8.211s3.675 8.211 8.21 8.211z"/></g></svg>