<svg id="Layer_1" enable-background="new 0 0 347.635 274.141" viewBox="0 0 347.635 274.141" xmlns="http://www.w3.org/2000/svg"><g><path d="m34.859 222.868c-1.026-.134-2.06-.386-3.072-.748-.961-.287-2.032-.652-3.459-1.179-2.836-1.046-8.053-2.977-12.049-7.215h-6.597c-3.89 0-7.073 3.183-7.073 7.073 0 3.89 3.183 7.073 7.073 7.073h1.903c-6.896 3.767-11.585 11.087-11.585 19.482v26.786h10v-26.786c0-6.717 5.464-12.181 12.18-12.181h66.756l-9.04-6.415z"/><path d="m347.635 264.141h-25.305v-227.285h10.789v-20h-84.521l-31.466-16.856-9.444 17.629 6.875 3.683-3.849 6.881c-2.272 4.063-.808 9.245 3.255 11.518.692.387 1.418.658 2.156.833l15.797 147.997h-2.122c-2.2 0-4 1.8-4 4v4.742l-46.671-5.657c-.049-.291-.125-.582-.238-.867-.868-2.207-3.362-3.292-5.569-2.424-1.11.437-1.934 1.285-2.371 2.3l-19.305-2.34.616-3.937c.41-2.621-.912-5.173-3.29-6.35l-8.731-4.32c-1.742-.863-3.732-.845-5.459.051-.701.364-1.304.851-1.799 1.424l-38.625-12.025-22.858-23.84c-.456-.475-.961-.874-1.493-1.212-.258-.22-.507-.448-.79-.646-7.208-5.045-20.423-5.148-30.368 6.719-8.425 10.174-13.958 18.555-18.268 28.625-2.637 6.161-4.818 12.952-6.921 21.176-2.846 16.154 6.865 21.649 15.464 24.822 1.212.447 2.333.84 3.382 1.151.843.306 1.727.532 2.651.653l45.604 5.965 44.456 31.55c2.195 1.559 4.722 2.308 7.224 2.308 3.913 0 7.768-1.832 10.204-5.267 3.996-5.63 2.671-13.433-2.959-17.428l-46.989-33.348c-1.663-1.181-3.591-1.937-5.613-2.201l-37.007-4.841c2.322-5.541 5.187-10.964 8.16-16.085 2.01-3.462 4.066-6.78 6.039-9.907l-10.469-8.839c-2.103-1.774-3.388-4.262-3.619-7.004-.231-2.741.619-5.409 2.394-7.511 1.961-2.323 4.831-3.656 7.873-3.656 2.427 0 4.786.863 6.643 2.432l26.888 22.7 39.622 9.043c2.222.507 4.104 1.709 5.489 3.317-.31-2.091-1.441-3.995-3.158-5.263.076-.048.142-.109.223-.151.443-.229.92-.345 1.398-.345.459 0 .92.106 1.35.319l8.731 4.32c1.197.592 1.863 1.877 1.656 3.197l-.636 4.068c-.711.047-1.315.579-1.404 1.311-.084.697.326 1.335.952 1.576l-.609 3.891c-.207 1.318-1.233 2.339-2.554 2.537l-9.634 1.447c-.546.082-1.08.003-1.571-.193-.809.202-1.652.312-2.52.312-.538 0-1.076-.058-1.611-.143.262.458.581.889.966 1.276 1.151 1.158 2.667 1.784 4.262 1.784.305 0 .612-.023.92-.069l9.634-1.447c2.624-.395 4.662-2.42 5.072-5.041l.617-3.943 19.643 2.381c.028.087.04.176.074.262.868 2.207 3.362 3.292 5.569 2.424.9-.354 1.6-.986 2.071-1.751l47.262 5.729v3.941c0 2.2 1.8 4 4 4h11.288v16.928h-115.1l14.091 10h19.513l-20.481 28.967h-31.417v10h239.941zm-70.897-34.569h11.333l2.186 4.6h-15.705zm-4.755-4.737v-3.752h20.842v3.752zm0-8.488v-3.752h20.842v3.752zm0-8.488v-3.752h20.842v3.752zm0-8.489v-3.752h20.842v3.752zm0-8.488v-3.751h20.842v3.751zm0-8.489v-145.537h20.842v145.537zm-2.653-145.537v145.537h-9.032v4.737h9.032v3.751h-9.032v4.737h9.032v3.752h-9.032v4.737h9.032v3.752h-9.032v4.737h9.032v3.752h-9.032v4.737h9.032v3.752h-9.032v4.737h4.277l2.186 4.6h-15.674v-197.318zm-18.242 207.316h61.242v19.969h-61.242zm61.242-10h-14.283l2.186-4.6h2.887v-4.737h-7.642v-3.752h7.642v-4.737h-7.642v-3.752h7.642v-4.737h-7.642v-3.752h7.642v-4.737h-7.642v-3.752h7.642v-4.737h-7.642v-3.751h7.642v-4.737h-7.642v-145.535h16.853v197.316zm10.495-207.389c0 3.035-2.46 5.495-5.495 5.495s-5.495-2.46-5.495-5.495 2.46-5.495 5.495-5.495 5.495 2.46 5.495 5.495zm-76.737-5.495c3.035 0 5.495 2.46 5.495 5.495s-2.46 5.495-5.495 5.495-5.495-2.46-5.495-5.495 2.46-5.495 5.495-5.495zm-31.051 10.046c.851-1.522 2.776-2.066 4.298-1.214 1.522.851 2.066 2.775 1.214 4.298-.426.762-1.121 1.278-1.9 1.498l-.2-1.87c-.088-.823-.823-1.419-1.651-1.332-.824.088-1.42.827-1.333 1.65l.075.706c-.949-.976-1.202-2.487-.503-3.736zm19.903 157.207-15.78-147.839c2.574-.331 4.971-1.821 6.328-4.247l3.999-7.149 11.602 6.215v153.019h-6.149zm-65.446 46.633h71.594v28.967h-92.075z"/><path d="m246.088 24.572c-1.221 0-2.211.99-2.211 2.21 0 1.221.99 2.211 2.211 2.211s2.211-.99 2.211-2.211c0-1.22-.99-2.21-2.211-2.21z"/><path d="m317.33 24.572c-1.221 0-2.211.99-2.211 2.21 0 1.221.99 2.211 2.211 2.211s2.211-.99 2.211-2.211c0-1.22-.99-2.21-2.211-2.21z"/><ellipse cx="92.856" cy="120.555" rx="22.5" ry="22.5" transform="matrix(.707 -.707 .707 .707 -58.048 100.969)"/><path d="m87.473 186.741 42.063 9.6c.6.137 1.198.202 1.787.202 3.649 0 6.946-2.514 7.793-6.222.982-4.308-1.712-8.597-6.02-9.58l-40.167-9.167-27.315-23.062c-3.376-2.852-8.424-2.426-11.273.951-2.851 3.376-2.425 8.424.951 11.273l28.801 24.316c.975.826 2.135 1.405 3.38 1.689z"/></g></svg>