<svg id="Layer_1" enable-background="new 0 0 241.365 352.208" viewBox="0 0 241.365 352.208" xmlns="http://www.w3.org/2000/svg"><g><path d="m10 322.887c0-6.716 5.464-12.18 12.181-12.18h36.591l4.277-17.214h-30.563c-.571 0-1.153-.04-1.816-.125-.79.035-1.573.05-2.347.05-.27 0-.538-.001-.806-.005-4.852-.061-9.091-.351-11.82-3.282-.252-.271-.484-.564-.703-.872h-5.312c-3.89 0-7.073 3.183-7.073 7.073 0 3.89 3.183 7.073 7.073 7.073h1.903c-6.896 3.767-11.585 11.087-11.585 19.482v26.787h10z"/><path d="m79.326 135.8c.529 0 1.066-.14 1.552-.435 1.417-.859 1.87-2.704 1.011-4.121l-3.134-5.173-1.786 8.546c.581.753 1.45 1.183 2.357 1.183z"/><path d="m139.818 41.852c-1.221 0-2.211.99-2.211 2.211s.99 2.211 2.211 2.211 2.211-.99 2.211-2.211-.99-2.211-2.211-2.211z"/><path d="m211.06 41.852c-1.221 0-2.211.99-2.211 2.211s.99 2.211 2.211 2.211 2.211-.99 2.211-2.211-.99-2.211-2.211-2.211z"/><path d="m15.122 276.062c-.824 13.953 3.262 14.936 12.426 15.051 1.054.014 2.133.001 3.222-.052.563.078 1.133.132 1.717.132h33.503l-11.304 45.498c-1.665 6.699 2.417 13.48 9.117 15.145 1.012.252 2.025.372 3.023.372 5.607 0 10.708-3.801 12.121-9.489l15.158-61.012c.928-3.732.085-7.684-2.284-10.714-2.173-2.778-5.41-4.479-8.898-4.745-2.592 4.789-7.661 8.05-13.479 8.05-5.839 0-10.921-3.286-13.504-8.104h-4.345c1.014-12.57.424-22.387-2.068-33.239-1.08-4.703-2.512-9.597-4.334-14.998-.628-1.825-1.369-3.494-2.203-5.015l-6.659 8.807c-1.964 2.598-4.961 4.088-8.222 4.088-2.256 0-4.402-.721-6.206-2.084-4.53-3.425-5.43-9.897-2.005-14.428l28.214-37.314 10.77-51.549c.992-4.749 5.229-8.195 10.073-8.195.504 0 1.008.051 1.51.125l-.825-1.362c-.203-.336-.471-.622-.779-.851l2.535-22.841c.284-.049.566-.127.845-.236 2.207-.868 3.292-3.362 2.424-5.569-.445-1.131-1.318-1.96-2.359-2.39l4.25-38.295c3.088.123 6.144-1.442 7.749-4.31l4.205-7.519 46.307 23.793v247.896h-43.061l-2.484 10h45.546v28.967h-31.389v10h137.937v-10h-25.306v-285.538h10.79v-20h-84.613l-66.439-34.137-9.141 17.789 6.788 3.488-3.913 6.996c-2.272 4.062-.808 9.245 3.255 11.518.27.151.545.283.823.401l-4.313 38.86c-.067.023-.135.031-.202.057-2.207.868-3.292 3.362-2.424 5.569.357.908.997 1.611 1.77 2.081l-2.562 23.083c-.148.064-.295.132-.432.221l-3.627 2.34c-4.042-.643-7.898 1.865-8.964 5.784l-5.525 3.565c-1.392.898-1.792 2.755-.895 4.147.899 1.392 2.754 1.792 4.147.895l.605-.391-6.554 32.883c-4.125-4.739-10.196-7.738-16.973-7.738-12.426 0-22.5 10.073-22.5 22.5 0 10.289 6.909 18.958 16.338 21.639l-6.327 7.111c-5.581 4.3-7.707 13.811-5.346 22 1.117 5.706 2.582 12.43 3.774 19.549 1.734 10.345 2.887 21.532 1.522 31.715zm150.59 33.643h2.569l2.186-4.6h11.333l2.186 4.6h2.568zm0-9.337v-3.752h20.842v3.752zm0-8.488v-3.752h20.842v3.752zm0-8.489v-3.752h20.842v3.752zm0-8.488v-3.752h20.842v3.752zm0-8.489v-3.752h20.842v3.752zm0-8.488v-203.789h20.842v203.789zm-2.652-203.789v203.789h-9.032v4.737h9.032v3.752h-9.032v4.737h9.032v3.752h-9.032v4.737h9.032v3.752h-9.032v4.737h9.032v3.752h-9.032v4.737h9.032v3.752h-9.032v4.737h4.277l2.186 4.6h2.568-18.242v-255.571zm-18.243 285.536v-19.968h61.242v19.968zm61.243-29.968h-16.852 2.569l2.186-4.6h2.887v-4.737h-7.642v-3.752h7.642v-4.737h-7.642v-3.752h7.642v-4.737h-7.642v-3.752h7.642v-4.737h-7.642v-3.752h7.642v-4.737h-7.642v-3.752h7.642v-4.737h-7.642v-203.786h16.852zm10.494-265.642c0 3.035-2.46 5.495-5.495 5.495s-5.495-2.46-5.495-5.495 2.46-5.495 5.495-5.495 5.495 2.46 5.495 5.495zm-76.736-5.495c3.035 0 5.495 2.46 5.495 5.495s-2.46 5.495-5.495 5.495-5.495-2.46-5.495-5.495 2.46-5.495 5.495-5.495zm-65.964-7.154c.851-1.522 2.776-2.066 4.298-1.215s2.066 2.776 1.215 4.298c-.494.883-1.351 1.424-2.279 1.567l.179-1.614c.091-.823-.502-1.565-1.325-1.656-.824-.093-1.565.502-1.656 1.325l-.095.853c-.813-.976-.993-2.384-.337-3.558z"/><path d="m76.796 124.204c.903-4.324-1.87-8.563-6.195-9.467-4.323-.904-8.563 1.87-9.467 6.195l-10.875 52.054-28.524 37.726c-2.664 3.524-1.967 8.542 1.557 11.206 1.444 1.092 3.139 1.619 4.819 1.619 2.421 0 4.814-1.095 6.387-3.175l29.607-39.158c.712-.943 1.207-2.032 1.449-3.189z"/><path d="m81.761 258.981c0-6.802-5.514-12.316-12.316-12.316s-12.316 5.514-12.316 12.316 5.514 12.316 12.316 12.316 12.316-5.514 12.316-12.316zm-17.747 0c0-3 2.432-5.432 5.432-5.432s5.432 2.432 5.432 5.432-2.432 5.432-5.432 5.432c-3.001 0-5.432-2.432-5.432-5.432z"/></g></svg>