<svg viewBox="0 0 32 32" xmlns="http://www.w3.org/2000/svg"><g id="Layer_10" data-name="Layer 10"><path d="m29 24v-3a1 1 0 0 0 -1-1h-2a1 1 0 0 0 -1 1v3h-8v-3a1 1 0 0 0 -1-1h-2a1 1 0 0 0 -1 1v3a1 1 0 0 0 0 2v3a1 1 0 0 0 1 1h2a1 1 0 0 0 1-1v-3h8v3a1 1 0 0 0 1 1h2a1 1 0 0 0 1-1v-3a1 1 0 0 0 0-2z"/><path d="m9 6h6a2 2 0 0 0 2-2v-1a1 1 0 0 0 -1-1h-8a1 1 0 0 0 -1 1v1a2 2 0 0 0 2 2z"/><path d="m19 29a3 3 0 0 1 -.18 1h1.18a2 2 0 0 0 2-2h-3z"/><path d="m11 21a3 3 0 0 1 3-3h2a3 3 0 0 1 3 3v1h3v-17a2 2 0 0 0 -2-2h-1v1a4 4 0 0 1 -4 4h-6a4 4 0 0 1 -4-4v-1h-1a2 2 0 0 0 -2 2v23a2 2 0 0 0 2 2h7.18a3 3 0 0 1 -.18-1v-1.78a3 3 0 0 1 0-4.44zm-4 4a1 1 0 1 1 1-1 1 1 0 0 1 -1 1zm0-4a1 1 0 1 1 0-2 1 1 0 0 1 0 2zm0-4a1 1 0 1 1 0-2 1 1 0 0 1 0 2zm0-4a1 1 0 1 1 0-2 1 1 0 0 1 0 2zm4-2h5a1 1 0 0 1 0 2h-5a1 1 0 0 1 0-2zm-1 5a1 1 0 0 1 1-1h5a1 1 0 0 1 0 2h-5a1 1 0 0 1 -1-1z"/></g></svg>