<svg id="Layer_1" enable-background="new 0 0 200.459 233.373" height="512" viewBox="0 0 200.459 233.373" width="512" xmlns="http://www.w3.org/2000/svg"><g><path d="m200.459 223.373h-15.885l-10.531-106.992c-1.386-14.077-9.605-26.565-21.985-33.407l-18.313-10.12 11.763-66.428-9.847-1.744-7.241 40.893c-2.5-.403-4.894 1.278-5.344 3.78l-3.163 17.594-33.96-13.373-3.664 9.305 7.464 2.939-3.995 7.718c-2.042 3.944-6.067 6.507-10.522 6.687l-1.142.052c2.147-7.417 4.598-14.383 6.515-20.261 4.059-9.53 1.783-21.81-6.43-24.96-6.19-2.375-15.01-1.199-21.883 5.48l14.459 2.065c5.622.803 9.543 6.03 8.741 11.652-.723 5.043-5.1 8.845-10.184 8.846-.489 0-.984-.036-1.472-.105l-19.148-2.735 4.934 24.346c.191.944.236 1.882.168 2.798l25.7-1.183c6.587-.267 12.562-4.068 15.591-9.923l2.852-5.51 1.427-2.756 22.744 8.956-5.09 28.315c-.455 2.53 1.243 4.972 3.773 5.427.03.005.059.002.089.007l-19.87 112.218 2.365.419h-36.852v10h137.937v-10zm-68.556-140.113 15.319 8.466c9.5 5.25 15.806 14.833 16.87 25.636l10.434 106.012h-67.434z"/><circle cx="100.951" cy="22.5" r="22.5"/><path d="m41.58 96.742c-.678.137-1.369.206-2.055.206-1.957 0-3.807-.567-5.389-1.546-.113 2.517-.176 5.15-.193 7.931.698 9.964 4.96 14.961 10.241 17.576l2.529 34.763-36.437 6.589c-6.793 1.229-11.304 7.731-10.076 14.525 1.092 6.041 6.355 10.278 12.286 10.277.738 0 1.487-.065 2.239-.201l47.495-8.589c6.288-1.138 10.706-6.834 10.243-13.208l-3.712-51.031c.155-1.137.278-2.391.366-3.784-.067-5.921.748-12.073 2.01-18.149l-23.653 1.093c-1.45 1.764-3.488 3.061-5.894 3.548z"/><path d="m29.368 88.34-1.206-5.952-2.724.126.261 5.68.014.314z"/><path d="m47.375 85.058-5.581-27.541 22.377 3.196c4.371.628 8.425-2.415 9.051-6.788.624-4.374-2.415-8.426-6.789-9.051l-33.6-4.8c-2.567-.368-5.165.539-6.949 2.429s-2.539 4.531-2.022 7.079l7.832 38.652c.769 3.794 4.105 6.413 7.832 6.413.527 0 1.062-.052 1.598-.161 4.329-.876 7.128-5.097 6.251-9.428z"/></g></svg>