<svg id="Layer_1" height="512" viewBox="0 0 324.8848 273.9236" width="512" xmlns="http://www.w3.org/2000/svg"><g><path d="m162.4424 81.9329c12.4277 0 22.5-10.0733 22.5-22.5 0-12.4268-10.0723-22.5-22.5-22.5-12.4258 0-22.5 10.0732-22.5 22.5 0 12.4267 10.0742 22.5 22.5 22.5zm-10.792-25.9402c.375-2.5 10.7924-2.75 10.7924-2.75s10.4166.25 10.7916 2.75.25 9.4167-.875 9.4167-1.125-1.4167-1.875-1.4167-4.209-.5833-8.042-.5833-7.292.5833-8.042.5833-.75 1.4167-1.875 1.4167-1.25-6.9167-.875-9.4167z"/><path d="m261.6104 212.95c0 2.1997 1.7998 4 4 4h.7158c1.8594 0 3.4219-1.2925 3.8633-3.02.4424 1.7275 2.0029 3.02 3.8633 3.02h.7158c1.915 0 3.5264-1.3667 3.9111-3.1719.3838 1.8057 1.9941 3.1719 3.9102 3.1719h.7158c2.2002 0 4-1.7998 4-4v-21.5581h6.8213v-10.7998h30.7578v-5.5581h-30.7578v-10.7998h-6.8213v-21.5581c0-2.1997-1.7998-4-4-4h-.7158c-1.916 0-3.5264 1.3662-3.9102 3.1714-.3848-1.8057-1.9961-3.1714-3.9111-3.1714h-.7158c-1.8604 0-3.4209 1.292-3.8633 3.0195-.4414-1.7275-2.0039-3.0195-3.8633-3.0195h-.7158c-2.2002 0-4 1.7998-4 4v32.3579h-47.8097c.0004.0991.0026.194.0029.2933.006 1.8836-.5015 3.6857-1.4375 5.2648h46.9445 2.2998z"/><path d="m193.2039 175.3893c-.0004-.1203-.002-.2354-.0025-.3553h-61.8852c-.0005.1199-.0021.235-.0025.3553-.0059 1.8999-.5392 3.6747-1.447 5.2028h3.5212l-6.5216 79.9628c-.5547 6.8071 4.5135 12.7725 11.3183 13.3272 6.8047.5542 12.7734-4.5098 13.3281-11.3174l6.6241-81.219h8.6113l6.624 81.219c.5547 6.8076 6.5234 11.8716 13.3281 11.3174 6.8047-.5547 11.8731-6.5201 11.3184-13.3272l-6.5217-79.9628h3.1539c-.9076-1.5281-1.441-3.3029-1.4469-5.2028z"/><path d="m110.7141 175.3273c.0003-.0993.0025-.1942.0029-.2933h-47.4328v-32.3579c0-2.1997-1.7998-4-4-4h-.7158c-1.8594 0-3.4209 1.2925-3.8633 3.0195-.4414-1.7271-2.002-3.0195-3.8623-3.0195h-.7158c-1.9219 0-3.5381 1.374-3.916 3.188-.3779-1.814-1.9941-3.188-3.916-3.188h-.7158c-2.1992 0-4 1.8003-4 4v21.5581h-6.8203v10.7998h-30.7589v5.5581h30.7588v10.7998h6.8203v21.5581c0 2.2002 1.8008 4 4 4h.7158c1.9219 0 3.5381-1.374 3.916-3.188.3779 1.814 1.9941 3.188 3.916 3.188h.7158c1.8604 0 3.4209-1.2925 3.8623-3.0195.4424 1.7271 2.0039 3.0195 3.8633 3.0195h.7158c2.2002 0 4-1.7998 4-4v-32.3579h2.2998 46.5676c-.9359-1.5791-1.4434-3.3812-1.4374-5.2648z"/><path d="m113.0139 175.3346c-.0137 4.418 3.5576 8.0107 7.9756 8.0239h.0254c4.4062-.0005 7.9854-3.5659 7.999-7.9761.1066-35.5865 4.6746-53.7117 8.8168-62.8433l2.1953.7936c-1.5374 3.3492-3.1848 8.098-4.6296 14.7601v27.8719l-1.3677 16.7693h56.8272l-1.3677-16.7703v-26.1132c-1.5284-7.5963-3.3275-12.8813-4.9968-16.5179l2.1954-.7936c4.1422 9.1315 8.7103 27.2568 8.8168 62.8433.0137 4.4102 3.5928 7.9756 7.999 7.9761h.0254c4.418-.0132 7.9893-3.606 7.9756-8.0239-.0917-30.4966-3.3508-53.4053-9.6927-68.2623-.8192-1.9189-1.6871-3.7102-2.6091-5.3593-4.8933-8.754-10.3962-12.0674-14.0963-13.3121-1.0135-.4883-2.1453-.7698-3.3459-.7698h-38.6346c-.8597 0-1.6837.1461-2.456.4051-3.6189.8892-9.8676 3.8632-15.3533 13.6769-.9219 1.649-1.7899 3.4403-2.6091 5.3593-6.3419 14.857-9.601 37.7657-9.6927 68.2623z"/><path d="m140.4301 76.2474c.0029-.0375.0032-.0747.0017-.1115-.0209-.501-.4164-.9175-.9282-.9551-.0221-.0015-2.2464-.1823-3.5819-1.7863-.8555-1.0268-1.191-2.454-.9948-4.2411.0593-.5479-.3367-1.0425-.8856-1.1028-.5493-.0599-1.0425.3367-1.1027.8858-.2575 2.3589.2342 4.2957 1.4626 5.7576 1.8959 2.2578 4.844 2.4741 4.9685 2.4824.5494.0358 1.0222-.3795 1.0604-.929z"/><path d="m137.253 81.5014c.5472.0652 1.0425-.3252 1.1092-.8724.0065-.055.0087-.1096.0064-.1632-.02-.4799-.385-.8888-.8768-.9502-.0353-.0044-3.5608-.4723-5.6357-3.203-1.3593-1.7882-1.8295-4.1811-1.3926-7.1152.0783-.5474-.2971-1.0547-.843-1.1358-.5463-.0811-1.0545.2961-1.1359.8424-.5175 3.497.0855 6.4031 1.7943 8.6386 2.6005 3.4026 6.7963 3.9376 6.9741 3.9588z"/><path d="m34.4117 133.9807c.5405-.1073.8942-.6331.7875-1.1748-.1071-.5422-.6331-.8942-1.175-.7874-2.328.4597-4.0291 1.5081-5.0566 3.1176-1.5875 2.4843-.9122 5.3622-.8829 5.4835.1302.5349.6679.8619 1.2036.734.0366-.0085.0722-.0192.1069-.0317.4719-.1698.751-.6719.6338-1.1714-.0051-.0215-.4979-2.1981.6334-3.9521.7238-1.1235 1.9854-1.8705 3.7493-2.2177z"/><path d="m33.0349 129.7347c.5458-.0889.9176-.5989.8317-1.144-.086-.5456-.5979-.9177-1.1436-.8319-3.4917.5521-6.0845 1.9965-7.7067 4.2957-2.4691 3.499-1.7248 7.6628-1.6918 7.8388.1014.5416.6221.8976 1.1641.7975.0544-.0103.1072-.0245.1577-.0427.4518-.1625.733-.6332.6445-1.1208-.0064-.035-.6143-3.5391 1.3709-6.3357 1.3-1.832 3.4428-2.9963 6.3732-3.4569z"/><path d="m294.9033 140.4622c.0361.0075.0729.0131.1103.0164.5483.0516 1.035-.3475 1.089-.8953.0121-.1241.2778-3.0682-1.6418-5.3058-1.2427-1.4497-3.0739-2.2496-5.4433-2.379-.5516-.0298-1.0231.3923-1.0532.9441-.0298.5514.394 1.0225.9442 1.053 1.7952.0967 3.1489.6599 4.023 1.6708 1.3656 1.5785 1.1824 3.8026 1.1804 3.8246-.0462.511.3005.9691.7914 1.0712z"/><path d="m299.511 139.1301c.0526.0109.1068.0177.1621.0203.5508.0232 1.0164-.4022 1.0411-.9526.008-.1789.162-4.4059-2.7726-7.5248-1.928-2.0494-4.6975-3.1167-8.2321-3.1745-.5522-.0085-1.007.4316-1.0158.9838-.0087.5518.4308 1.0047.9837 1.0164 2.966.0458 5.2507.8987 6.7942 2.5305 2.3572 2.4912 2.2458 6.0458 2.2444 6.0814-.0194.4952.3248.9217.795 1.0195z"/><path d="m185.515 77.1764c.1245-.0082 3.0726-.2246 4.9685-2.4824 1.2284-1.4619 1.7201-3.3986 1.4626-5.7576-.0602-.5491-.5533-.9457-1.1027-.8858-.5489.0602-.9448.5549-.8856 1.1028.1963 1.787-.1393 3.2143-.9948 4.2411-1.3355 1.604-3.5598 1.7847-3.5818 1.7863-.5118.0376-.9074.4541-.9283.9551-.0015.0368-.0012.074.0017.1115.0383.5495.5111.9648 1.0604.929z"/><path d="m187.6318 81.5014c.1778-.0212 4.3736-.5562 6.9741-3.9587 1.7088-2.2355 2.3117-5.1416 1.7943-8.6386-.0814-.5463-.5895-.9235-1.1359-.8424-.5458.0811-.9213.5884-.8429 1.1358.4368 2.9341-.0333 5.327-1.3926 7.1152-2.075 2.7307-5.6004 3.1986-5.6357 3.203-.4918.0614-.8568.4703-.8768.9502-.0022.0536-.0001.1082.0064.1632.0665.5471.562.9375 1.1091.8723z"/><path d="m228.4412 21.7271-1.4724-4.3046-38.8685 26.6142.7745 1.9772z"/><path d="m136.1844 44.0367-38.8685-26.6142-1.4725 4.3046 39.5665 24.2868z"/><path d="m87.9946 41.1846 44.8679 11.9254.1753-2.1161-44.8665-14.3553z"/><path d="m235.7227 36.6386-44.8665 14.3553.1752 2.1161 44.868-11.9254z"/><path d="m134.5501 16.2847 7.106 11.7275-17.667 1.1533 15.7915 9.8242 1.5849-2.5468-7.8628-4.8916 13.2803-.8672-5.5337-9.1319 11.4932 3.6382-1.731-15.1548 9.9468 10.7671 6.1382-12.0849 3.3423 14.4502 10.3281-7.9214-4.0273 15.2622 9.8296.1196-5.6148 5.354 2.0703 2.1709 10.9439-10.435-13.3472-.1626 5.2861-20.0328-13.5962 10.4283-4.1523-17.9512-7.9233 15.5996-13.2456-14.3384 2.2465 19.6724z"/></g></svg>