<svg id="_30-Report" height="512" viewBox="0 0 64 64" width="512" xmlns="http://www.w3.org/2000/svg" data-name="30-Report"><path d="m13 10v-1a3.00328 3.00328 0 0 1 3-3h3.10059a5.00053 5.00053 0 0 1 9.79882 0h3.10059a3.00328 3.00328 0 0 1 3 3v1a3.00328 3.00328 0 0 1 -3 3h-16a3.00328 3.00328 0 0 1 -3-3zm-1 39h4v-4h-4zm0-12h4v-4h-4zm0-12h4v-4h-4zm16.18 30.99-1.01 1.01h-18.17a5.00181 5.00181 0 0 1 -5-5v-39a5.00181 5.00181 0 0 1 5-5h2.1a4.71537 4.71537 0 0 0 -.1 1v1a5.00181 5.00181 0 0 0 5 5h16a5.00181 5.00181 0 0 0 5-5v-1a4.71537 4.71537 0 0 0 -.1-1h2.1a5.00181 5.00181 0 0 1 5 5v17a4.387 4.387 0 0 0 -3.12 1.29l-.59.59a4.41807 4.41807 0 0 0 0 6.24l2.88 2.88-4.17 4.17-2.88-2.88a4.41807 4.41807 0 0 0 -6.24 0l-.59.59a4.38535 4.38535 0 0 0 -.1 6.11l-.89.89a4.35545 4.35545 0 0 0 -1.3 3.12 4.41525 4.41525 0 0 0 1.18 2.99zm-7.18-35.99a.99943.99943 0 0 0 1 1h15a1 1 0 0 0 0-2h-15a.99943.99943 0 0 0 -1 1zm0 6a.99943.99943 0 0 0 1 1h9a1 1 0 0 0 0-2h-9a.99943.99943 0 0 0 -1 1zm0 6a.99943.99943 0 0 0 1 1h15a1 1 0 0 0 0-2h-15a.99943.99943 0 0 0 -1 1zm0 6a.99943.99943 0 0 0 1 1h9a1 1 0 0 0 0-2h-9a.99943.99943 0 0 0 -1 1zm-3 6a.99943.99943 0 0 0 -1-1h-6a.99943.99943 0 0 0 -1 1v6a.99943.99943 0 0 0 1 1h6a.99943.99943 0 0 0 1-1zm0-12a.99943.99943 0 0 0 -1-1h-6a.99943.99943 0 0 0 -1 1v6a.99943.99943 0 0 0 1 1h6a.99943.99943 0 0 0 1-1zm0-12a.99943.99943 0 0 0 -1-1h-6a.99943.99943 0 0 0 -1 1v6a.99943.99943 0 0 0 1 1h6a.99943.99943 0 0 0 1-1zm8 30a.99943.99943 0 0 0 -1-1h-3a1 1 0 0 0 0 2h3a.99943.99943 0 0 0 1-1zm0-6a.99943.99943 0 0 0 -1-1h-3a1 1 0 0 0 0 2h3a.99943.99943 0 0 0 1-1zm19.70709-11.29291a2.41421 2.41421 0 0 0 -3.41418 0l-.58582.58582a2.41421 2.41421 0 0 0 0 3.41418l11.58582 11.58582a2.41421 2.41421 0 0 0 3.41418 0l.58582-.58582a2.41421 2.41421 0 0 0 0-3.41418zm7.00291-.99709a2.41437 2.41437 0 0 0 -3.42 0l-.87.88 9 9 .87-.88a2.41415 2.41415 0 0 0 0-3.42zm-18.00291 11.99709a2.41421 2.41421 0 0 0 -3.41418 0l-.58582.58582a2.41421 2.41421 0 0 0 0 3.41418l11.58582 11.58582a2.41421 2.41421 0 0 0 3.41418 0l.58582-.58582a2.41421 2.41421 0 0 0 0-3.41418zm25-11.82843-1.58575-1.58575a1 1 0 0 0 -1.41425 0l-1.293 1.293 3 3 1.293-1.293a1 1 0 0 0 0-1.41425zm-19.293 14.70728 3 3 4.17188-4.17188-3-3zm-12.12118 12.12115a.99989.99989 0 0 0 0 1.41419l1.58575 1.58581a1.00007 1.00007 0 0 0 1.41425 0l1.293-1.293-3-3zm1.41709-7.41709a2.41415 2.41415 0 0 0 0 3.42l5.58 5.58a2.41423 2.41423 0 0 0 3.42 0l.88-.87-9-9z"/></svg>