<svg class="custom-icon" viewBox="0 0 512 512" xmlns="http://www.w3.org/2000/svg">
  <g fill="currentColor">
    <path d="m446.678 65.428-32.106-32.106c-2.141-2.141-1.233-5.851 1.684-6.659 7.971-2.209 16.969-.243 23.389 6.163l7.54 7.54c6.314 6.314 8.372 15.311 6.158 23.364-.804 2.925-4.519 3.844-6.665 1.698z"/>
    <path d="m65.439 446.689c2.141 2.141 1.233 5.851-1.684 6.66-7.972 2.21-16.971.242-23.389-6.163l-7.54-7.54c-6.314-6.314-8.372-15.311-6.158-23.364.804-2.926 4.519-3.845 6.665-1.699z"/>
    <path d="m329.829 191.673-138.156 138.156c-3.124 3.124-8.19 3.124-11.314 0l-30.166-30.166c-3.124-3.124-3.124-8.19 0-11.314l138.156-138.156c3.124-3.124 8.191-3.123 11.315.001l30.164 30.164c3.124 3.124 3.125 8.19.001 11.315z"/>
    <path d="m446.758 162.057c3.934 3.934 10.311 3.94 14.253.014l11.325-11.325c10.227-10.206 10.242-26.799 0-37.02l-106.05-106.05c-10.206-10.226-26.799-10.242-37.02 0l-11.325 11.325c-3.926 3.942-3.92 10.318.014 14.252z"/>
    <path d="m285.837 23.762c-3.98-3.98-10.431-3.988-14.421-.017l-19.28 19.28c-10.2 10.21-10.2 26.81 0 37.02l147.83 147.83c10.199 10.199 26.82 10.2 37.02 0l19.28-19.28c3.971-3.99 3.963-10.44-.017-14.421z"/>
    <path d="m194.273 456.346c3.932 3.932 10.307 3.933 14.24.002l19.363-19.363c10.2-10.21 10.2-26.81 0-37.02l-147.83-147.83c-10.21-10.2-26.82-10.2-37.02 0l-19.28 19.28c-3.971 3.991-3.962 10.442.018 14.422z"/>
    <path d="m31.777 316.478 130.284 130.284c3.931 3.931 3.938 10.303.015 14.242l-11.331 11.331c-10.206 10.226-26.799 10.242-37.02 0l-106.049-106.049c-10.224-10.204-10.244-26.797 0-37.02l12.788-12.788c3.124-3.124 8.189-3.124 11.313 0z"/>
  </g>
</svg>