<svg xmlns="http://www.w3.org/2000/svg" viewBox="-16 -16 544 544" width="100%" height="100%" fill="currentColor" preserveAspectRatio="xMidYMid meet">
<g>
	<g>
		<path d="M95,121c-8.271,0-15,6.729-15,15s6.729,15,15,15s15-6.729,15-15S103.271,121,95,121z"/>
	</g>
</g>
<g>
	<g>
		<path d="M95,241c-8.271,0-15,6.729-15,15s6.729,15,15,15s15-6.729,15-15S103.271,241,95,241z"/>
	</g>
</g>
<g>
	<g>
		<path d="M407,0H105C47.103,0,0,47.103,0,105v302c0,57.897,47.103,105,105,105h302c57.897,0,105-47.103,105-105V105
			C512,47.103,464.897,0,407,0z M170,60h296.959c6.565,8.725,11.274,18.922,13.532,30H170V60z M95,421c-24.813,0-45-20.187-45-45
			s20.187-45,45-45s45,20.187,45,45S119.813,421,95,421z M95,301c-24.813,0-45-20.187-45-45s20.187-45,45-45s45,20.187,45,45
			S119.813,301,95,301z M95,181c-24.813,0-45-20.187-45-45s20.187-45,45-45s45,20.187,45,45S119.813,181,95,181z M466.959,452H170
			v-30h310.491C478.233,433.078,473.524,443.275,466.959,452z M482,331H170v-30h312V331z M482,211H170v-30h312V211z"/>
	</g>
</g>
<g>
	<g>
		<path d="M95,361c-8.271,0-15,6.729-15,15s6.729,15,15,15s15-6.729,15-15S103.271,361,95,361z"/>
	</g>
</g>
<g>
</g>
<g>
</g>
<g>
</g>
<g>
</g>
<g>
</g>
<g>
</g>
<g>
</g>
<g>
</g>
<g>
</g>
<g>
</g>
<g>
</g>
<g>
</g>
<g>
</g>
<g>
</g>
<g>
</g>
</svg>
