<svg width="19" height="22" viewBox="0 0 19 22" fill="none" xmlns="http://www.w3.org/2000/svg">
<path d="M19 12.1563C19 12.5707 18.8394 12.9681 18.5536 13.2611C18.2677 13.5542 17.8801 13.7188 17.4758 13.7188C17.3954 13.7168 17.3152 13.7089 17.2358 13.6953H17.1596C15.8952 13.4702 14.7199 12.8792 13.7722 11.9922L15.2011 8.91405C15.4776 9.36568 15.845 9.75163 16.2787 10.046C16.7124 10.3404 17.2024 10.5364 17.716 10.6211C18.0753 10.6796 18.4024 10.8681 18.638 11.1524C18.8702 11.4329 18.9984 11.7884 19 12.1563Z" fill="currentColor"/>
<path d="M8.17477 16.0352C7.77187 16.3568 7.33308 16.6282 6.86775 16.8438C5.87484 17.2898 4.80061 17.5135 3.71665 17.5C2.81381 17.5027 1.91538 17.3711 1.04938 17.1094C0.668359 16.9813 0.351902 16.7045 0.168599 16.3389C-0.0147036 15.9733 -0.0501109 15.5484 0.0700836 15.1563C0.15118 14.9018 0.294683 14.673 0.486844 14.4917C0.679005 14.3104 0.913333 14.1828 1.16743 14.1211C1.82281 13.961 2.45536 14.3047 3.0955 14.3789C3.78091 14.4569 4.47466 14.3904 5.1341 14.1836C5.54815 14.0592 5.93586 13.8565 6.27721 13.586C6.37007 13.8957 6.49795 14.1933 6.65825 14.4727C7.03543 15.1097 7.5553 15.6453 8.17477 16.0352Z" fill="currentColor"/>
<path d="M18.4513 21.4141C18.4513 21.5695 18.391 21.7185 18.2838 21.8284C18.1767 21.9383 18.0313 22 17.8797 22H5.68651C5.53492 22 5.38949 21.9383 5.28231 21.8284C5.17512 21.7185 5.11495 21.5695 5.11495 21.4141C5.11495 21.2587 5.17512 21.1097 5.28231 20.9998C5.38949 20.8899 5.53492 20.8281 5.68651 20.8281H13.3073C13.3949 20.8281 13.4254 20.8047 13.4178 20.7031C13.391 20.1179 13.3299 19.5348 13.2349 18.9571C13.109 18.2768 12.8664 17.6248 12.5185 17.0313C12.3258 16.7108 12.0926 16.4179 11.825 16.1602C11.7373 16.0781 11.6421 15.9961 11.543 15.9141C11.1771 15.6208 10.7628 15.3972 10.3199 15.2539C9.37111 14.9258 8.51762 14.6133 7.97655 13.6914C7.77773 13.3498 7.65095 12.9692 7.60435 12.5743C7.55775 12.1794 7.59239 11.7788 7.70603 11.3985C7.83558 11.0547 8.02991 10.7188 8.18614 10.3867L9.46256 7.62111C9.49686 7.5469 9.69884 6.94532 9.78267 6.92579C9.47057 6.98747 9.1636 7.07367 8.8644 7.18362C7.81582 7.58785 6.85506 8.19973 6.03703 8.98439C5.88843 9.12189 5.71485 9.22805 5.52622 9.29677C5.3376 9.36549 5.13765 9.39541 4.93773 9.38489C4.73782 9.37437 4.54183 9.32361 4.36106 9.23545C4.18029 9.14729 4.0183 9.02347 3.8842 8.8711C3.75008 8.71875 3.64648 8.54085 3.57945 8.34748C3.51241 8.15411 3.48323 7.94909 3.49349 7.74414C3.50375 7.53919 3.55327 7.33832 3.63926 7.153C3.72526 6.96769 3.84609 6.80157 3.99472 6.6641C5.10707 5.60751 6.4106 4.78468 7.83171 4.2422C8.84054 3.86563 9.90546 3.67135 10.9791 3.66799C11.5177 3.66699 12.055 3.72065 12.5832 3.82816C12.7241 3.83877 12.8628 3.87035 12.9948 3.92191C13.1741 3.94894 13.3496 3.9988 13.5169 4.07034C14.0762 4.31021 14.5197 4.76802 14.7497 5.34307C14.9798 5.91812 14.9777 6.56331 14.7438 7.13674L14.6295 7.41798L12.1794 12.6953C12.3242 12.7656 12.4728 12.8398 12.6138 12.918C12.7547 12.9961 12.9948 13.1563 13.1701 13.2852C13.7239 13.6879 14.2192 14.1693 14.6409 14.7149C15.4934 15.8666 16.055 17.2165 16.2756 18.6445C16.4263 19.3697 16.4598 20.1153 16.3746 20.8516C16.8738 20.8516 17.3729 20.8516 17.8721 20.8516C18.0211 20.8494 18.165 20.907 18.2732 21.0121C18.3814 21.1172 18.4453 21.2614 18.4513 21.4141Z" fill="currentColor"/>
<path d="M2.91258 20.8281H1.53699C1.3854 20.8281 1.24007 20.8899 1.13288 20.9998C1.02569 21.1097 0.965433 21.2586 0.965433 21.414C0.965433 21.5695 1.02569 21.7185 1.13288 21.8284C1.24007 21.9383 1.3854 22 1.53699 22H2.91258C3.06417 22 3.2095 21.9383 3.31669 21.8284C3.42388 21.7185 3.48414 21.5695 3.48414 21.414C3.48414 21.2586 3.42388 21.1097 3.31669 20.9998C3.2095 20.8899 3.06417 20.8281 2.91258 20.8281Z" fill="currentColor"/>
<path d="M14.9039 3.72656C15.9077 3.72656 16.7214 2.89234 16.7214 1.86328C16.7214 0.83422 15.9077 0 14.9039 0C13.9 0 13.0863 0.83422 13.0863 1.86328C13.0863 2.89234 13.9 3.72656 14.9039 3.72656Z" fill="currentColor"/>
</svg>
