<svg id="Capa_1" enable-background="new 0 0 512 512" viewBox="0 0 512 512" fill="currentColor" xmlns="http://www.w3.org/2000/svg"><g><path d="m401.229 0h-290.458c-22.898 0-41.527 18.629-41.527 41.527v428.946c0 22.898 18.629 41.527 41.527 41.527h290.458c22.898 0 41.527-18.629 41.527-41.527v-428.946c0-22.898-18.629-41.527-41.527-41.527zm21.527 470.473c0 11.87-9.657 21.527-21.527 21.527h-290.458c-11.87 0-21.527-9.657-21.527-21.527v-428.946c0-11.87 9.657-21.527 21.527-21.527h290.458c11.87 0 21.527 9.657 21.527 21.527z"/><path d="m379.457 53.15h-246.914c-5.523 0-10 4.477-10 10v88.571c0 5.523 4.477 10 10 10h246.913c5.523 0 10-4.477 10-10v-88.571c.001-5.523-4.477-10-9.999-10zm-10 88.571h-226.914v-68.571h226.913v68.571z"/><path d="m186.254 385.14h-53.71c-5.523 0-10 4.477-10 10v53.71c0 5.523 4.477 10 10 10h53.71c5.523 0 10-4.477 10-10v-53.71c0-5.523-4.477-10-10-10zm-10 53.71h-33.71v-33.71h33.71z"/><path d="m282.855 385.14h-53.71c-5.523 0-10 4.477-10 10v53.71c0 5.523 4.477 10 10 10h53.71c5.523 0 10-4.477 10-10v-53.71c0-5.523-4.477-10-10-10zm-10 53.71h-33.71v-33.71h33.71z"/><path d="m186.254 291.215h-53.71c-5.523 0-10 4.477-10 10v53.71c0 5.523 4.477 10 10 10h53.71c5.523 0 10-4.477 10-10v-53.71c0-5.523-4.477-10-10-10zm-10 53.71h-33.71v-33.71h33.71z"/><path d="m282.855 291.215h-53.71c-5.523 0-10 4.477-10 10v53.71c0 5.523 4.477 10 10 10h53.71c5.523 0 10-4.477 10-10v-53.71c0-5.523-4.477-10-10-10zm-10 53.71h-33.71v-33.71h33.71z"/><path d="m379.457 291.215h-53.71c-5.523 0-10 4.477-10 10v147.635c0 5.523 4.477 10 10 10h53.71c5.523 0 10-4.477 10-10v-147.635c0-5.523-4.478-10-10-10zm-10 147.635h-33.71v-127.635h33.71z"/><path d="m186.254 197.29h-53.71c-5.523 0-10 4.477-10 10v53.71c0 5.523 4.477 10 10 10h53.71c5.523 0 10-4.477 10-10v-53.71c0-5.523-4.477-10-10-10zm-10 53.71h-33.71v-33.71h33.71z"/><path d="m282.855 197.29h-53.71c-5.523 0-10 4.477-10 10v53.71c0 5.523 4.477 10 10 10h53.71c5.523 0 10-4.477 10-10v-53.71c0-5.523-4.477-10-10-10zm-10 53.71h-33.71v-33.71h33.71z"/><path d="m379.457 197.29h-53.71c-5.523 0-10 4.477-10 10v53.71c0 5.523 4.477 10 10 10h53.71c5.523 0 10-4.477 10-10v-53.71c0-5.523-4.478-10-10-10zm-10 53.71h-33.71v-33.71h33.71z"/></g></svg>
