<?xml version="1.0"?>
<svg xmlns="http://www.w3.org/2000/svg" viewBox="0 0 446.86 512" color="currentColor"><g id="Layer_2" data-name="Layer 2"><g id="data"><path d="M223.43,412.57c-63.51,0-123.37-9.26-168.55-26.07C31.15,377.67,12.67,367.11,0,355.36v79.78c0,18.45,22.55,37.42,61.86,52.05,43,16,100.38,24.81,161.57,24.81S342,503.19,385,487.19c39.31-14.63,61.86-33.6,61.86-52.05V355.36c-12.67,11.75-31.15,22.31-54.89,31.14C346.8,403.31,286.94,412.57,223.43,412.57Zm102.09,46.24a10.1,10.1,0,0,1-.57,1.87,10.63,10.63,0,0,1-.92,1.73,10.11,10.11,0,0,1-1.25,1.52,10,10,0,0,1-1.51,1.24,10.63,10.63,0,0,1-1.73.92,10.1,10.1,0,0,1-1.87.57,10.15,10.15,0,0,1-3.91,0,10.1,10.1,0,0,1-1.87-.57,10,10,0,0,1-3.25-2.16,10,10,0,0,1-1.24-1.52,10.63,10.63,0,0,1-.92-1.73,10.1,10.1,0,0,1-.57-1.87,9.84,9.84,0,0,1-.19-1.95,9.94,9.94,0,0,1,.19-2,10,10,0,0,1,1.49-3.59,9.57,9.57,0,0,1,1.24-1.52,9.86,9.86,0,0,1,3.25-2.17,10.1,10.1,0,0,1,1.87-.57,9.9,9.9,0,0,1,3.91,0,10.1,10.1,0,0,1,1.87.57,10.63,10.63,0,0,1,1.73.92,10,10,0,0,1,1.51,1.25,9.63,9.63,0,0,1,1.25,1.52,10,10,0,0,1,1.49,3.59,9.94,9.94,0,0,1,.19,2A9.84,9.84,0,0,1,325.52,458.81ZM369,448a10.1,10.1,0,0,1-.57,1.87,9.87,9.87,0,0,1-.92,1.73,10.21,10.21,0,0,1-1.25,1.52,10.06,10.06,0,0,1-7.07,2.93,9.85,9.85,0,0,1-1.95-.2,9.39,9.39,0,0,1-1.87-.57,9.87,9.87,0,0,1-1.73-.92,9.72,9.72,0,0,1-2.76-2.76,9.87,9.87,0,0,1-.92-1.73,10.1,10.1,0,0,1-.57-1.87,9.61,9.61,0,0,1,0-3.9,10.1,10.1,0,0,1,.57-1.87,9.87,9.87,0,0,1,.92-1.73,9.72,9.72,0,0,1,2.76-2.76,9.25,9.25,0,0,1,1.73-.92,9.39,9.39,0,0,1,1.87-.57,10,10,0,0,1,9,2.73,9.63,9.63,0,0,1,1.25,1.52,9.87,9.87,0,0,1,.92,1.73,10.1,10.1,0,0,1,.57,1.87,10.1,10.1,0,0,1,0,3.9Zm23.82-14.76a10.1,10.1,0,0,1,.57-1.87,9.87,9.87,0,0,1,.92-1.73,9.57,9.57,0,0,1,1.24-1.52,10.09,10.09,0,0,1,9-2.73,10.58,10.58,0,0,1,1.87.57,10.15,10.15,0,0,1,1.72.92,9.57,9.57,0,0,1,1.52,1.24,10,10,0,0,1,2.74,9,10.58,10.58,0,0,1-.57,1.87,10,10,0,0,1-5.41,5.41,10.58,10.58,0,0,1-1.87.57,10,10,0,0,1-9-2.74,9.57,9.57,0,0,1-1.24-1.52,10.15,10.15,0,0,1-.92-1.72,10.58,10.58,0,0,1-.57-1.87,10,10,0,0,1-.2-2A9.85,9.85,0,0,1,392.77,433.19Z"/><path d="M223.43,293.14c-63.51,0-123.37-9.26-168.55-26.07C31.15,258.24,12.67,247.68,0,235.93v79.78c0,18.45,22.55,37.42,61.86,52.05,43,16,100.38,24.81,161.57,24.81S342,383.76,385,367.76c39.31-14.63,61.86-33.6,61.86-52.05V235.93c-12.67,11.75-31.15,22.31-54.89,31.14C346.8,283.88,286.94,293.14,223.43,293.14Zm102.09,46.24a10.1,10.1,0,0,1-.57,1.87A9.87,9.87,0,0,1,324,343a10.15,10.15,0,0,1-1.24,1.52,10,10,0,0,1-1.52,1.24,10.63,10.63,0,0,1-1.73.92,10.1,10.1,0,0,1-1.87.57,9.66,9.66,0,0,1-3.91,0,10.1,10.1,0,0,1-1.87-.57,10.63,10.63,0,0,1-1.73-.92,9.94,9.94,0,0,1-4.25-10.27,10.58,10.58,0,0,1,.57-1.87,10.15,10.15,0,0,1,.92-1.72,9.57,9.57,0,0,1,1.24-1.52,10.75,10.75,0,0,1,1.52-1.25,10.63,10.63,0,0,1,1.73-.92,10.1,10.1,0,0,1,1.87-.57,9.9,9.9,0,0,1,3.91,0,10.1,10.1,0,0,1,1.87.57,10.63,10.63,0,0,1,1.73.92,10.75,10.75,0,0,1,1.52,1.25A10.14,10.14,0,0,1,325,333.6a10.58,10.58,0,0,1,.57,1.87,10,10,0,0,1,.19,2A9.84,9.84,0,0,1,325.52,339.38ZM369,328.52a10.44,10.44,0,0,1-.57,1.88,10.15,10.15,0,0,1-.92,1.72,9.63,9.63,0,0,1-1.25,1.52,10.67,10.67,0,0,1-1.51,1.25,11.42,11.42,0,0,1-1.73.91,9.39,9.39,0,0,1-1.87.57,10,10,0,0,1-2,.2,9.85,9.85,0,0,1-1.95-.2,9.39,9.39,0,0,1-1.87-.57,11,11,0,0,1-1.73-.91,10.21,10.21,0,0,1-1.52-1.25,9.57,9.57,0,0,1-1.24-1.52,10.15,10.15,0,0,1-.92-1.72,10.44,10.44,0,0,1-.57-1.88,9.61,9.61,0,0,1,0-3.9,10.1,10.1,0,0,1,.57-1.87,9.87,9.87,0,0,1,.92-1.73,9.72,9.72,0,0,1,2.76-2.76,10.24,10.24,0,0,1,1.73-.92,9.39,9.39,0,0,1,1.87-.57,9.9,9.9,0,0,1,3.91,0,9.39,9.39,0,0,1,1.87.57,10.63,10.63,0,0,1,1.73.92,10,10,0,0,1,1.51,1.24,9.63,9.63,0,0,1,1.25,1.52,9.87,9.87,0,0,1,.92,1.73,10.1,10.1,0,0,1,.57,1.87,10.1,10.1,0,0,1,0,3.9Zm26.55-19.88a10.09,10.09,0,0,1,9-2.73,10.58,10.58,0,0,1,1.87.57,10.15,10.15,0,0,1,1.72.92,9.57,9.57,0,0,1,1.52,1.24,10,10,0,0,1,0,14.14,9.63,9.63,0,0,1-1.52,1.25,10.15,10.15,0,0,1-1.72.92,10.58,10.58,0,0,1-1.87.57,10,10,0,0,1-2,.19,9.84,9.84,0,0,1-1.95-.19,10.1,10.1,0,0,1-1.87-.57A9.87,9.87,0,0,1,397,324a9.63,9.63,0,0,1-1.52-1.25,10,10,0,0,1,0-14.14Z"/><path d="M223.43,173.71c-63.51,0-123.37-9.25-168.55-26.06C31.15,138.82,12.67,128.25,0,116.5v79.79c0,18.44,22.55,37.41,61.86,52,43,16,100.38,24.81,161.57,24.81S342,264.33,385,248.33c39.31-14.63,61.86-33.6,61.86-52V116.5c-12.67,11.75-31.15,22.32-54.89,31.15C346.8,164.46,286.94,173.71,223.43,173.71ZM325.52,220a10.1,10.1,0,0,1-.57,1.87,9.87,9.87,0,0,1-.92,1.73,10.15,10.15,0,0,1-1.24,1.52,10,10,0,0,1-1.52,1.24,10.63,10.63,0,0,1-1.73.92,9.39,9.39,0,0,1-1.87.57,9.66,9.66,0,0,1-3.91,0,9.39,9.39,0,0,1-1.87-.57,10.63,10.63,0,0,1-1.73-.92,10,10,0,0,1-1.52-1.24,9.57,9.57,0,0,1-1.24-1.52,9.87,9.87,0,0,1-.92-1.73,10.1,10.1,0,0,1-.57-1.87,9.61,9.61,0,0,1,0-3.9,10.1,10.1,0,0,1,.57-1.87,9.87,9.87,0,0,1,.92-1.73,9.57,9.57,0,0,1,1.24-1.52,10,10,0,0,1,1.52-1.24,10.63,10.63,0,0,1,1.73-.92,9.39,9.39,0,0,1,1.87-.57,9.9,9.9,0,0,1,3.91,0,9.39,9.39,0,0,1,1.87.57,10.63,10.63,0,0,1,1.73.92,9.92,9.92,0,0,1,4.44,8.31A9.84,9.84,0,0,1,325.52,220ZM369,209.1a10.34,10.34,0,0,1-.57,1.87,10.15,10.15,0,0,1-.92,1.72,9.63,9.63,0,0,1-1.25,1.52,10,10,0,0,1-1.51,1.25,10.63,10.63,0,0,1-1.73.92,9.86,9.86,0,0,1-3.83.76,9.84,9.84,0,0,1-1.95-.19,10.1,10.1,0,0,1-1.87-.57,10.24,10.24,0,0,1-1.73-.92,9.93,9.93,0,0,1-2.76-2.77,10.15,10.15,0,0,1-.92-1.72,10.34,10.34,0,0,1-.57-1.87,10,10,0,0,1-.2-2,9.85,9.85,0,0,1,.2-1.95,10.1,10.1,0,0,1,.57-1.87,10.24,10.24,0,0,1,.92-1.73,9.72,9.72,0,0,1,2.76-2.76,10.24,10.24,0,0,1,1.73-.92,10.1,10.1,0,0,1,1.87-.57,9.9,9.9,0,0,1,3.91,0,10.1,10.1,0,0,1,1.87.57,10.63,10.63,0,0,1,1.73.92,10,10,0,0,1,1.51,1.24,9.63,9.63,0,0,1,1.25,1.52,9.87,9.87,0,0,1,.92,1.73,10.1,10.1,0,0,1,.57,1.87,9.84,9.84,0,0,1,.19,1.95A9.94,9.94,0,0,1,369,209.1Zm23.82-14.77a10,10,0,0,1,1.49-3.59A9.93,9.93,0,0,1,397,188a9.87,9.87,0,0,1,1.73-.92,10.1,10.1,0,0,1,1.87-.57,9.9,9.9,0,0,1,3.91,0,10.58,10.58,0,0,1,1.87.57,10.15,10.15,0,0,1,1.72.92,9.63,9.63,0,0,1,1.52,1.25,10,10,0,0,1,2.17,3.24,10.1,10.1,0,0,1,.57,1.87,9.94,9.94,0,0,1,.19,2,10.05,10.05,0,0,1-2.93,7.07,9.57,9.57,0,0,1-1.52,1.24,10.15,10.15,0,0,1-1.72.92,10.58,10.58,0,0,1-1.87.57,10,10,0,0,1-2,.2,9.85,9.85,0,0,1-1.95-.2,10.1,10.1,0,0,1-1.87-.57,9.87,9.87,0,0,1-1.73-.92,9.57,9.57,0,0,1-1.52-1.24,10,10,0,0,1-1.24-1.52,10.63,10.63,0,0,1-.92-1.73,10.1,10.1,0,0,1-.57-1.87,9.85,9.85,0,0,1-.2-2A10,10,0,0,1,392.77,194.33Z"/><path d="M61.86,128.9c43,16,100.38,24.81,161.57,24.81S342,144.9,385,128.9c39.31-14.63,61.86-33.59,61.86-52s-22.55-37.42-61.86-52C342,8.81,284.62,0,223.43,0S104.86,8.81,61.86,24.81C22.55,39.44,0,58.41,0,76.86S22.55,114.27,61.86,128.9Z"/></g></g></svg>
