<svg viewBox="0 0 100 100" fill="currentColor" xmlns="http://www.w3.org/2000/svg">
 <path d="m19.406 75.359-10.297 3.4844-9.1094-26.812 10.297-3.5z"/>
 <path d="m36.281 79.156-10.891 3.7031-2.3594-6.9844c0-0.015625-0.015625-0.03125-0.015625-0.046875s-0.015625-0.03125-0.015625-0.046875l-10.125-29.781c0-0.015625-0.015625-0.046875-0.015625-0.0625-0.03125-0.078125-0.0625-0.17188-0.09375-0.23438l-2.2969-6.7812 10.891-3.7031 5.4062 15.938c0.015625 0.015625 0.015625 0.015625 0.015625 0.03125s0 0.015625 0.015625 0.03125l4.0469 11.922c0 0.015625 0.015625 0.03125 0.015625 0.046875s0.015625 0.015625 0.015625 0.03125z"/>
 <path d="m30.375 51.68 36.219-12.297 3.0352 8.9375-36.219 12.297z"/>
 <path d="m89.531 61.078-10.891 3.7031-5.4062-15.938c-0.015625-0.015625-0.015625-0.015625-0.015625-0.03125s-0.015625-0.046875-0.03125-0.0625c-0.015625-0.0625-0.046875-0.14062-0.0625-0.1875l-3.9375-11.641c0-0.03125-0.015625-0.078125-0.03125-0.125 0-0.015625-0.015625-0.03125-0.015625-0.046875l-5.4062-15.906 10.891-3.7031 2.3594 6.9844c0 0.015625 0.015625 0.03125 0.015625 0.046875s0.015625 0.03125 0.015625 0.046875l10.141 29.828v0.015625l0.015625 0.015625z"/>
 <path d="m100 47.969-10.297 3.5156-9.1094-26.844 10.297-3.4844z"/>
</svg>