<svg viewBox="0 0 45 45" fill="none" xmlns="http://www.w3.org/2000/svg">
<path d="M20 6.24264H6C4.93913 6.24264 3.92172 6.66407 3.17157 7.41421C2.42143 8.16436 2 9.18177 2 10.2426V38.2426C2 39.3035 2.42143 40.3209 3.17157 41.0711C3.92172 41.8212 4.93913 42.2426 6 42.2426H34C35.0609 42.2426 36.0783 41.8212 36.8284 41.0711C37.5786 40.3209 38 39.3035 38 38.2426V24.2426M35 3.24264C35.7956 2.44699 36.8748 2 38 2C39.1252 2 40.2044 2.44699 41 3.24264C41.7956 4.03829 42.2426 5.11742 42.2426 6.24264C42.2426 7.36786 41.7956 8.44699 41 9.24264L22 28.2426L14 30.2426L16 22.2426L35 3.24264Z" stroke="currentColor" stroke-width="4" stroke-linecap="round" stroke-linejoin="round"/>
</svg>
