<svg id="Layer_1" enable-background="new 0 0 1024 1024" viewBox="0 0 1024 1024" color="currentColor" xmlns="http://www.w3.org/2000/svg"><g id="XMLID_13_"><path id="XMLID_25_" d="m627 751.1v-93.2c0-8.4-6.8-15.3-15.3-15.3h-294c-8.4 0-15.3-6.8-15.3-15.3v-230.7c0-8.4 6.8-15.3 15.3-15.3h294c8.4 0 15.3-6.8 15.3-15.3v-93.2c0-13 15.1-20 25.1-11.8l287.8 239.1c7.4 6.1 7.4 17.4 0 23.5l-287.8 239.3c-10 8.2-25.1 1.2-25.1-11.8z"/><g id="XMLID_20_"><path id="XMLID_24_" d="m647 751.1c0-30.9.8-61.9 0-92.8-.5-19.9-15.6-35-35.4-35.6-2.1-.1-4.2 0-6.2 0-12.2 0-24.3 0-36.5 0-41.5 0-83.1 0-124.6 0-36.3 0-72.7 0-109 0-4.4 0-8.7 0-13.1 0-1.1 0-2.3-.1-3.4 0-.2 0-.6-.1-.8 0-.4.1 4.3 1.7 1 .2.8.4 3.5 2.4 1.1.5.4.3 3.4 3.1 1 .7-.8-.8-2.4-2.9.7 1-.6-.7-1.8-3.8.5 1.1-1.5-3.3-.1 1.7.2 1 .2-.8 0-2 0-2.8 0-4.5 0-9.1 0-13.6 0-39 0-78.1 0-117.1 0-31.6 0-63.2 0-94.8 0-.4.2-1.8 0-2.2 0-.9-.2 0-.5 2.6.4-1.6 1.1-2.3-.8 1 1.5-2.6-1 .7-1 .8-.2-.3 2.1-1.7 1.8-1.8.1 0-4 3-.8 1-.4.3-4.3 1.8-1 .8-2.6.3-3.4.5-2.6.5.7.6 4.5 0 5.4 0h35.2 123.3 111c6.3 0 12.7.2 19.1 0 20.1-.7 35-16.2 35.3-36.3.1-6.4 0-12.8 0-19.1 0-20.7 0-41.4 0-62 0-2.9 0-5.7 0-8.6 0-.7 0-1.4 0-2.1 0-.1 0-.2 0-.3 0-.5 1.3 1.4 0-1.3-.1 1-.2 1.9-.3 2.9.5-1.6.4-1.5-.2.2-1.5 3.1 1.8-.7-.9 1.4-2.4 1.9-.4.4.3-.1 1.9-1.6-3.4 2.6-1.4 1.1.6-.4 2.9-2 .1-.2-2.6 1.7 1.4.4-1.8.5-3.4.1-.7.1.1.2 2.6.2-4.5-.9-1.9-.2 2.2.6-4-2.3-1-.4 3.8 2.3-3.9-3.4-1.3-1.1 16.5 14.3 33.7 28 50.5 41.9 32.2 26.7 64.4 53.5 96.6 80.2 31.5 26.2 63 52.3 94.5 78.5 15.1 12.6 30.7 24.7 45.4 37.7.5.5 1 1 1.6 1.5 2 1.7-2.3-3-.9-.9 1.5 2.2-1.4-3.7-.7-1.3.8 2.5-.3-4.3-.3-1.6 0 2.3 1.4-4.3.1-1 2-5 1.2-2.2.5-1.3 3.1-4 1.2-1.5.2-.5-.3.2-.4.3-.5.5-.1.1-.2.2-.4.3-1.7 1.5-3.4 2.8-5.1 4.2-8.3 6.9-16.5 13.7-24.8 20.6-29.5 24.5-59 49-88.4 73.5-33.4 27.7-66.8 55.5-100.1 83.2-21.3 17.7-42.6 35.4-64 53.1-1.5 1.3-3.1 2.5-4.6 3.8-.1.1-.2.2-.3.3-.2.2 3-2.3 3-2.3.2 0-2.1 1.2-2.1 1.3.3-1.2 4.2-1.5 1.5-.8 5.1-1.1 3.2-.3 1.4-.4-2.6-.1 4.5.9 2 .2-2.4-.7 3.9 2.1 1.7.8-.8-.4-2.6-1.9-.3.1 2.4 2 .5.3 0-.3-1.7-1.8 2.5 3.4 1.1 1.3-1.3-2.1 1.3 4 .7 1.6-.7-3 .3 5.1.1.7-.4-10.4-8.9-20.5-20-20-10.5.5-20.4 8.8-20 20 .5 12.2 6.2 23.5 16.8 30 10.5 6.5 23.8 6.8 34.7 1.3 3.7-1.9 6.9-4.7 10.1-7.4 7-5.8 14-11.7 21-17.5 28.6-23.8 57.2-47.5 85.8-71.3 34.3-28.5 68.5-56.9 102.8-85.4 22.9-19.1 45.9-38.1 68.8-57.2 2-1.7 4.1-3.3 6.1-5 9.9-8.4 14-21.8 11.3-34.4-2.6-12-10.5-18.1-19-25.2-23.8-19.8-47.6-39.5-71.3-59.3-34.4-28.6-68.7-57.1-103.1-85.7-28-23.3-56-46.5-83.9-69.8-6.4-5.3-12.8-10.7-19.3-16-7.1-5.8-14.3-10.1-23.8-10.6-20.6-1.2-36.4 15.9-36.9 35.7-.4 16.7 0 33.4 0 50.1v30.6 9.4c0 .7-.1 1.5 0 2.1 0 .1-.1.4 0 .4v.1c.5-2.8.7-3.4.3-1.9s-.1.9.9-1.6c-1.5 2.6 1-.7 1-.8-.1-.2-1.6 2-1.8 1.8.1 0 3.4-2.5.8-1 3.2-1.9 2.6-1.2 1-.8 7.6-2.1 2.9-.3 2.3-.5-.7-.2-1.7 0-2.4 0-4 0-7.9 0-11.9 0-15.1 0-30.2 0-45.3 0-43.7 0-87.3 0-131 0-32.3 0-64.5 0-96.8 0-2.1 0-4.2-.1-6.3 0-19.8.6-34.7 15.8-35.4 35.5-.3 9 0 18.1 0 27.1v125.8 55.4c0 9.5-.8 19.5.8 28.9 2.9 17 18.4 28.3 35.2 28.6h8.5 40.4 128.7 104.6c3.3 0 6.6.2 9.8 0 .2 0 1.1.1 1.3 0-.6.6-4.5-1.7-1.3-.2-5-2.3-1.8-1.1-1.1-.5-3.8-3.1-1.7-1.5-1-.7 2.4 2.5-.4-.6-.7-1 2 2.4-.1-.4-.5-1.1 1.5 3.3-.7-.6-.2-1.3-.1.1 0 .3 0 .3-.5 1.6 0 4.1 0 5.8v11.9 32 43.1c0 10.5 9.2 20.5 20 20 10.9-.2 20-8.5 20-19.7z"/></g></g><g id="XMLID_1_"><g id="XMLID_15_"><path id="XMLID_19_" d="m556.9 858.5c-12.6 0-25.1 0-37.7 0-30 0-60.1 0-90.1 0-36 0-72 0-108.1 0-30.5 0-61 0-91.5 0-13.5 0-27 .1-40.5 0-4.2 0-8.3-.3-12.5-.9 3.5.5 7.1 1 10.6 1.4-7.6-1.1-14.9-3.1-22-6 3.2 1.3 6.4 2.7 9.6 4-7.3-3.1-14.1-7.1-20.5-11.9 2.7 2.1 5.4 4.2 8.1 6.3-6.2-4.9-11.8-10.4-16.6-16.6l6.3 8.1c-4.8-6.3-8.8-13.1-11.9-20.5 1.3 3.2 2.7 6.4 4 9.6-2.9-7.1-4.9-14.4-6-22 .5 3.5 1 7.1 1.4 10.6-1.1-8.6-.9-17.3-.9-26 0-14 0-28 0-41.9 0-47.6 0-95.3 0-142.9 0-58.2 0-116.3 0-174.5 0-50 0-99.9 0-149.9 0-23.1-.1-46.2 0-69.2 0-4.3.3-8.6.9-12.8-.5 3.5-1 7.1-1.4 10.6 1.1-7.6 3.1-14.9 6-22-1.3 3.2-2.7 6.4-4 9.6 3.1-7.3 7.1-14.1 11.9-20.5-2.1 2.7-4.2 5.4-6.3 8.1 4.9-6.2 10.4-11.8 16.6-16.6-2.7 2.1-5.4 4.2-8.1 6.3 6.3-4.8 13.1-8.8 20.5-11.9-3.2 1.3-6.4 2.7-9.6 4 7.1-2.9 14.4-4.9 22-6-3.5.5-7.1 1-10.6 1.4 14.6-1.9 29.9-.9 44.6-.9h87.1 107.9 94.2c15.3 0 30.7.3 46 0h.7c20.9 0 41-18.4 40-40-1-21.7-17.6-40-40-40-12.2 0-24.5 0-36.7 0-29.6 0-59.1 0-88.7 0-35.5 0-71 0-106.6 0-30.7 0-61.4 0-92.1 0-14.5 0-29-.1-43.5 0-25.4.1-52.1 7.4-72.9 22.2-26.7 19-47.6 46.3-54.5 78.9-3.4 16.1-3.3 31.3-3.3 47.4v59.6 88 104.4 107 97.7 74.8 39.5c0 11.7 1.2 23.5 3.9 34.9 7.8 32.2 28.8 59.5 56 77.8 20.6 13.8 46.2 20.6 70.9 20.7h14.2 72.8 103.5 101.8 65.9 9.4c20.9 0 41-18.4 40-40-1.2-21.6-17.8-39.9-40.2-39.9z"/></g></g></svg>