<svg viewBox="0 0 39 39" fill="none" xmlns="http://www.w3.org/2000/svg">
<path d="M37.6668 17.0074C37.1063 12.9746 35.2355 9.23789 32.3424 6.37294C29.4493 3.50798 25.6946 1.6737 21.6565 1.15265C17.6183 0.631602 13.5209 1.45269 9.99538 3.48945C6.46983 5.5262 3.71173 8.66561 2.14596 12.4241M1.00012 3.25742V12.4241H10.1668M1.00012 21.5908C1.56057 25.6236 3.43142 29.3603 6.32449 32.2252C9.21756 35.0902 12.9723 36.9245 17.0105 37.4455C21.0486 37.9666 25.146 37.1455 28.6715 35.1087C32.1971 33.072 34.9552 29.9326 36.521 26.1741M37.6668 35.3408V26.1741H28.5001" stroke="currentColor" stroke-width="3" stroke-linecap="round" stroke-linejoin="round"/>
</svg>
