<svg viewBox="0 0 100 100" fill="currentColor" xmlns="http://www.w3.org/2000/svg">
 <path d="m85.5 47.703c-0.56641-8.9102-4.4141-16.926-10.344-22.859-5.9336-5.9297-13.949-9.7773-22.859-10.344v11.141c5.8398 0.54297 11.082 3.1367 15.004 7.0586s6.5156 9.1602 7.0586 15.004zm-49.047 0c1.2695 0 2.2969 1.0273 2.2969 2.2969s-1.0273 2.2969-2.2969 2.2969h-6.1914c0.52344 4.5703 2.6016 8.6719 5.6875 11.758 3.0859 3.0859 7.1836 5.1641 11.758 5.6875v-6.1914c0-1.2695 1.0273-2.2969 2.2969-2.2969 1.2695 0 2.2969 1.0273 2.2969 2.2969v6.1914c4.5703-0.52344 8.6719-2.6016 11.758-5.6875 3.0859-3.0859 5.1641-7.1836 5.6875-11.758h-6.1914c-1.2695 0-2.2969-1.0273-2.2969-2.2969s1.0273-2.2969 2.2969-2.2969h6.1914c-0.52344-4.5703-2.6016-8.6719-5.6875-11.758-3.0859-3.0859-7.1836-5.1641-11.758-5.6875v6.1914c0 1.2695-1.0273 2.2969-2.2969 2.2969-1.2695 0-2.2969-1.0273-2.2969-2.2969v-6.1914c-4.5703 0.52344-8.6719 2.6016-11.758 5.6875-3.0859 3.0859-5.1641 7.1836-5.6875 11.758zm-10.812 4.5938h-11.141c0.56641 8.9102 4.4141 16.926 10.344 22.859 5.9336 5.9297 13.949 9.7773 22.859 10.344v-11.141c-5.8398-0.54297-11.082-3.1367-15.004-7.0586-3.9219-3.918-6.5156-9.1602-7.0586-15.004zm-15.746 0h-6.5938c-1.2695 0-2.2969-1.0273-2.2969-2.2969s1.0273-2.2969 2.2969-2.2969h22.336c0.54297-5.8398 3.1367-11.082 7.0586-15.004 3.918-3.9219 9.1602-6.5156 15.004-7.0586v-11.141c-6.5898 0.42188-12.691 2.6289-17.816 6.1484-5.8906 4.043-10.5 9.8086-13.105 16.57-0.45703 1.1797-1.7812 1.7656-2.9609 1.3125-1.1797-0.45703-1.7656-1.7812-1.3125-2.9609 2.9414-7.6367 8.1445-14.145 14.789-18.707 5.8672-4.0273 12.859-6.5352 20.398-6.9648v-6.5938c0-1.2695 1.0273-2.2969 2.2969-2.2969s2.2969 1.0273 2.2969 2.2969v6.5938c10.18 0.57422 19.34 4.9336 26.105 11.699 6.7617 6.7656 11.129 15.926 11.699 26.105h6.5938c1.2695 0 2.2969 1.0273 2.2969 2.2969s-1.0273 2.2969-2.2969 2.2969h-22.336c-0.54297 5.8398-3.1367 11.082-7.0586 15.004-3.9219 3.9219-9.1602 6.5156-15.004 7.0586v11.141c7.0547-0.44922 13.551-2.9492 18.887-6.9102 6.0625-4.5 10.645-10.883 12.879-18.289 0.35938-1.2148 1.6367-1.9062 2.8516-1.5469s1.9062 1.6367 1.543 2.8516c-2.5234 8.3594-7.6992 15.574-14.547 20.656-6.1094 4.5352-13.547 7.3789-21.613 7.832v6.5938c0 1.2695-1.0273 2.2969-2.2969 2.2969s-2.2969-1.0273-2.2969-2.2969v-6.5938c-10.18-0.57422-19.34-4.9336-26.105-11.699-6.7617-6.7656-11.129-15.926-11.699-26.105z"/>
</svg>